G04*
G04 #@! TF.GenerationSoftware,Altium Limited,Altium Designer,23.2.1 (34)*
G04*
G04 Layer_Color=32768*
%FSLAX25Y25*%
%MOIN*%
G70*
G04*
G04 #@! TF.SameCoordinates,563C74A3-C083-4828-BA4E-F0EE4E1FBB61*
G04*
G04*
G04 #@! TF.FilePolarity,Positive*
G04*
G01*
G75*
%ADD10C,0.00787*%
%ADD29C,0.00394*%
%ADD31C,0.00197*%
D10*
X501000Y249063D02*
Y256937D01*
X497063Y253000D02*
X504937D01*
X610500Y268063D02*
Y275937D01*
X606563Y272000D02*
X614437D01*
D29*
X599500Y224031D02*
Y227969D01*
X597532Y226000D02*
X601469D01*
X542500Y203031D02*
Y206968D01*
X540531Y205000D02*
X544468D01*
X581000Y282031D02*
Y285968D01*
X579032Y284000D02*
X582969D01*
X542450Y258900D02*
X550950D01*
X533700D02*
X542200D01*
X542450Y250400D02*
Y258900D01*
Y267400D01*
X518450Y285900D02*
Y291900D01*
X567950D01*
Y215900D02*
Y291900D01*
Y213900D02*
Y215900D01*
X518450Y213900D02*
X567950D01*
X518450D02*
Y285900D01*
X580500Y258531D02*
Y262469D01*
X578532Y260500D02*
X582469D01*
D31*
X484465Y236465D02*
X517535D01*
Y269535D01*
X484465Y236465D02*
Y269535D01*
X517535D01*
X571055Y199819D02*
X627945D01*
X571055Y252181D02*
X627945D01*
Y199819D02*
Y252181D01*
X571055Y199819D02*
Y252181D01*
X528500Y211890D02*
X556500D01*
X528500Y198110D02*
X556500D01*
X528500D02*
Y211890D01*
X556500Y198110D02*
Y211890D01*
X593965Y255465D02*
X627035D01*
Y288535D01*
X593965Y255465D02*
Y288535D01*
X627035D01*
X577260Y290693D02*
X584740D01*
X577260Y277307D02*
X584740D01*
Y290693D01*
X577260Y277307D02*
Y290693D01*
X576760Y267193D02*
X584240D01*
X576760Y253807D02*
X584240D01*
Y267193D01*
X576760Y253807D02*
Y267193D01*
M02*
