M48
;Layer_Color=9474304
;FILE_FORMAT=4:4
METRIC,TZ
;TYPE=PLATED
T1F00S00C0.3000
T2F00S00C0.8000
T3F00S00C2.0000
%
T01
X1590000Y510000
X1560000
X1530000
X1500000
X1470000
X1440000
X1380000
X1320000
X1335000Y540000
X1365000Y600000
X1305000Y660000
X1320000Y690000
X1290000
X1260000
X1305000Y720000
X1455000
X1440000Y690000
X1500000
X1530000
X1515000Y720000
X1575000
X1545000Y540000
X1515000
T02
X1272540Y625120
Y660120
X1550670Y673380
Y708380
T03
X1620520Y538480
X1617980Y718820
X1272540
X1275080Y538480
M30
