G04*
G04 #@! TF.GenerationSoftware,Altium Limited,Altium Designer,23.2.1 (34)*
G04*
G04 Layer_Color=65535*
%FSLAX25Y25*%
%MOIN*%
G70*
G04*
G04 #@! TF.SameCoordinates,563C74A3-C083-4828-BA4E-F0EE4E1FBB61*
G04*
G04*
G04 #@! TF.FilePolarity,Positive*
G04*
G01*
G75*
%ADD10C,0.00787*%
%ADD11C,0.00591*%
G36*
X491157Y264811D02*
X493126Y266779D01*
X499031Y268748D01*
X503952Y268748D01*
X506906Y267764D01*
X509858Y265795D01*
X511827Y264811D01*
X491157Y264811D01*
D02*
G37*
G36*
X600658Y283811D02*
X602626Y285780D01*
X608532Y287748D01*
X613452Y287748D01*
X616405Y286764D01*
X619358Y284795D01*
X621327Y283811D01*
X600658Y283811D01*
D02*
G37*
G36*
X513468Y219993D02*
X513476D01*
X513497Y219985D01*
X513541Y219971D01*
X513549Y219964D01*
X513556Y219956D01*
X513585Y219934D01*
Y219927D01*
X513592Y219920D01*
X513599Y219883D01*
Y218848D01*
X514737D01*
X514744D01*
X514751D01*
X514781Y218841D01*
X514788D01*
X514795Y218826D01*
X514817Y218797D01*
Y218790D01*
X514824Y218775D01*
X514831Y218753D01*
X514839Y218724D01*
Y218717D01*
X514846Y218695D01*
X514853Y218659D01*
Y218579D01*
X514846Y218542D01*
X514839Y218506D01*
Y218498D01*
X514831Y218484D01*
X514824Y218462D01*
X514817Y218440D01*
Y218433D01*
X514810Y218425D01*
X514781Y218396D01*
X514773Y218389D01*
X514737Y218382D01*
X513599D01*
Y217332D01*
X513585Y217303D01*
Y217295D01*
X513578Y217288D01*
X513541Y217266D01*
X513534Y217259D01*
X513519Y217252D01*
X513497Y217244D01*
X513468Y217237D01*
X513461D01*
X513446Y217230D01*
X513410D01*
X513374D01*
X513366D01*
X513337D01*
X513301Y217237D01*
X513264Y217244D01*
X513257D01*
X513242Y217252D01*
X513199Y217266D01*
X513191D01*
X513184Y217273D01*
X513155Y217303D01*
Y217317D01*
X513147Y217346D01*
Y218382D01*
X511996D01*
X511981D01*
X511952Y218396D01*
X511945Y218404D01*
X511923Y218440D01*
Y218447D01*
X511915Y218455D01*
Y218476D01*
X511908Y218506D01*
Y218535D01*
X511901Y218571D01*
Y218688D01*
X511908Y218724D01*
Y218731D01*
X511915Y218746D01*
X511923Y218797D01*
Y218804D01*
X511930Y218812D01*
X511952Y218841D01*
X511959D01*
X511967D01*
X511996Y218848D01*
X513147D01*
Y219898D01*
X513155Y219934D01*
X513169Y219942D01*
X513199Y219971D01*
X513206D01*
X513220Y219978D01*
X513264Y219993D01*
X513272D01*
X513293D01*
X513330Y220000D01*
X513374D01*
X513381D01*
X513410D01*
X513439D01*
X513468Y219993D01*
D02*
G37*
G36*
X512914Y216843D02*
X512922D01*
X512943Y216836D01*
X512994Y216814D01*
X513002D01*
X513016Y216807D01*
X513046Y216792D01*
X513075Y216778D01*
X515553Y215320D01*
X515560D01*
X515568Y215305D01*
X515597Y215276D01*
X515604Y215269D01*
X515612Y215254D01*
X515619Y215225D01*
X515626Y215196D01*
Y215189D01*
X515633Y215159D01*
X515641Y215123D01*
X515648Y215079D01*
Y215065D01*
X515655Y215028D01*
Y214846D01*
X515648Y214788D01*
X515641Y214729D01*
Y214715D01*
X515633Y214686D01*
X515626Y214642D01*
X515619Y214605D01*
Y214598D01*
X515612Y214576D01*
X515604Y214547D01*
X515590Y214525D01*
Y214518D01*
X515575Y214511D01*
X515560Y214503D01*
X515539Y214496D01*
X512936D01*
Y214030D01*
X512929Y214008D01*
X512914Y213979D01*
X512878Y213957D01*
X512871Y213949D01*
X512834Y213935D01*
X512783Y213927D01*
X512710Y213920D01*
X512703D01*
X512696D01*
X512652Y213927D01*
X512601Y213935D01*
X512550Y213957D01*
X512542Y213964D01*
X512521Y213979D01*
X512499Y214000D01*
X512491Y214037D01*
Y214496D01*
X511631D01*
X511624D01*
X511617D01*
X511587Y214511D01*
X511580Y214525D01*
X511573Y214540D01*
X511558Y214562D01*
Y214569D01*
X511551Y214583D01*
Y214605D01*
X511544Y214642D01*
Y214678D01*
X511536Y214722D01*
Y214861D01*
X511544Y214904D01*
Y214912D01*
X511551Y214933D01*
Y214963D01*
X511558Y214984D01*
Y214992D01*
X511566Y214999D01*
X511587Y215028D01*
X511602D01*
X511631Y215036D01*
X512491D01*
Y216734D01*
X512499Y216778D01*
X512506Y216792D01*
X512528Y216822D01*
X512535D01*
X512550Y216829D01*
X512572Y216836D01*
X512601Y216843D01*
X512608D01*
X512637D01*
X512674Y216851D01*
X512725D01*
X512732D01*
X512761D01*
X512790D01*
X512827D01*
X512834D01*
X512856D01*
X512914Y216843D01*
D02*
G37*
G36*
X513753Y213497D02*
X513869D01*
X514001Y213490D01*
X514139Y213475D01*
X514292Y213454D01*
X514438Y213432D01*
X514445D01*
X514453Y213424D01*
X514474D01*
X514503Y213417D01*
X514576Y213403D01*
X514664Y213373D01*
X514773Y213344D01*
X514883Y213300D01*
X514992Y213249D01*
X515101Y213191D01*
X515116Y213184D01*
X515145Y213162D01*
X515196Y213118D01*
X515262Y213067D01*
X515335Y213002D01*
X515407Y212929D01*
X515473Y212841D01*
X515539Y212739D01*
X515546Y212725D01*
X515560Y212688D01*
X515590Y212630D01*
X515619Y212550D01*
X515641Y212455D01*
X515670Y212338D01*
X515685Y212207D01*
X515692Y212061D01*
Y211996D01*
X515685Y211923D01*
X515677Y211828D01*
X515655Y211726D01*
X515633Y211616D01*
X515597Y211507D01*
X515553Y211405D01*
X515546Y211390D01*
X515524Y211361D01*
X515495Y211310D01*
X515451Y211252D01*
X515393Y211186D01*
X515320Y211114D01*
X515240Y211048D01*
X515145Y210982D01*
X515130Y210975D01*
X515101Y210953D01*
X515043Y210931D01*
X514963Y210895D01*
X514868Y210858D01*
X514759Y210822D01*
X514627Y210785D01*
X514489Y210756D01*
X514482D01*
X514474D01*
X514453Y210749D01*
X514423Y210742D01*
X514387D01*
X514343Y210734D01*
X514234Y210720D01*
X514103Y210705D01*
X513949Y210698D01*
X513782Y210683D01*
X513599D01*
X513592D01*
X513578D01*
X513556D01*
X513519D01*
X513483D01*
X513432Y210691D01*
X513315D01*
X513184Y210705D01*
X513046Y210720D01*
X512892Y210734D01*
X512747Y210764D01*
X512739D01*
X512732D01*
X512710Y210771D01*
X512681Y210778D01*
X512608Y210793D01*
X512521Y210822D01*
X512411Y210858D01*
X512302Y210902D01*
X512185Y210953D01*
X512076Y211011D01*
X512061Y211019D01*
X512032Y211041D01*
X511981Y211077D01*
X511915Y211128D01*
X511850Y211194D01*
X511777Y211267D01*
X511711Y211354D01*
X511646Y211456D01*
X511638Y211471D01*
X511624Y211507D01*
X511602Y211565D01*
X511573Y211646D01*
X511544Y211748D01*
X511522Y211864D01*
X511507Y211996D01*
X511500Y212141D01*
Y212207D01*
X511507Y212280D01*
X511515Y212367D01*
X511529Y212469D01*
X511558Y212579D01*
X511587Y212688D01*
X511631Y212790D01*
X511638Y212805D01*
X511660Y212834D01*
X511690Y212885D01*
X511733Y212943D01*
X511792Y213009D01*
X511857Y213082D01*
X511937Y213147D01*
X512032Y213213D01*
X512047Y213220D01*
X512083Y213242D01*
X512142Y213264D01*
X512214Y213300D01*
X512309Y213337D01*
X512426Y213373D01*
X512550Y213410D01*
X512688Y213439D01*
X512696D01*
X512703D01*
X512725Y213446D01*
X512761D01*
X512798Y213454D01*
X512841Y213461D01*
X512951Y213468D01*
X513082Y213483D01*
X513235Y213497D01*
X513403Y213505D01*
X513585D01*
X513592D01*
X513607D01*
X513629D01*
X513665D01*
X513702D01*
X513753Y213497D01*
D02*
G37*
G36*
X515597Y210348D02*
X515619Y210333D01*
X515626Y210326D01*
X515633Y210312D01*
X515641Y210282D01*
X515648Y210239D01*
Y210224D01*
X515655Y210195D01*
Y209969D01*
X515648Y209925D01*
Y209918D01*
X515641Y209896D01*
X515633Y209867D01*
X515626Y209845D01*
Y209838D01*
X515619Y209830D01*
X515612Y209816D01*
X515597Y209809D01*
X515582Y209801D01*
X515546Y209779D01*
X512112Y208606D01*
Y208598D01*
X515539Y207461D01*
X515546D01*
X515560Y207454D01*
X515597Y207447D01*
X515604D01*
X515612Y207432D01*
X515626Y207403D01*
Y207396D01*
X515633Y207381D01*
X515641Y207352D01*
X515648Y207315D01*
Y207308D01*
X515655Y207272D01*
Y207104D01*
X515648Y207053D01*
X515641Y207009D01*
Y207002D01*
X515633Y206980D01*
X515626Y206951D01*
X515612Y206929D01*
X515604D01*
X515597Y206922D01*
X515575Y206914D01*
X515546D01*
X515539D01*
X515517D01*
X515488Y206929D01*
X515437Y206944D01*
X511646Y208270D01*
X511638D01*
X511624Y208278D01*
X511587Y208307D01*
Y208314D01*
X511573Y208321D01*
X511566Y208343D01*
X511558Y208372D01*
Y208380D01*
X511551Y208402D01*
Y208431D01*
X511544Y208474D01*
Y208518D01*
X511536Y208562D01*
Y208708D01*
X511544Y208744D01*
Y208803D01*
X511551Y208839D01*
Y208846D01*
X511558Y208861D01*
Y208905D01*
X511566Y208919D01*
X511573Y208948D01*
X511580Y208956D01*
X511602Y208978D01*
X511609D01*
X511617Y208985D01*
X511653Y208999D01*
X515444Y210326D01*
X515458Y210333D01*
X515480Y210341D01*
X515517Y210348D01*
X515553Y210355D01*
X515560D01*
X515575D01*
X515597Y210348D01*
D02*
G37*
G36*
X626009Y221154D02*
X626017D01*
X626031Y221147D01*
X626082Y221132D01*
X626097Y221125D01*
X626119Y221095D01*
Y221081D01*
X626126Y221052D01*
Y219907D01*
X629669D01*
X629683D01*
X629712Y219893D01*
X629720Y219878D01*
X629727Y219864D01*
X629734Y219842D01*
Y219834D01*
X629742Y219820D01*
Y219798D01*
X629749Y219761D01*
Y219754D01*
X629756Y219725D01*
X629764Y219689D01*
Y219594D01*
X629756Y219550D01*
X629749Y219506D01*
Y219499D01*
X629742Y219477D01*
X629734Y219419D01*
Y219411D01*
X629727Y219404D01*
X629712Y219375D01*
X629705D01*
X629698D01*
X629669Y219368D01*
X626126D01*
Y218201D01*
X626119Y218172D01*
X626111Y218158D01*
X626082Y218136D01*
X626075D01*
X626060Y218128D01*
X626038D01*
X626009Y218121D01*
X626002D01*
X625980D01*
X625944Y218114D01*
X625900D01*
X625893D01*
X625863D01*
X625834D01*
X625798Y218121D01*
X625791D01*
X625769Y218128D01*
X625725Y218136D01*
X625718D01*
X625710Y218143D01*
X625681Y218172D01*
Y218179D01*
X625674Y218187D01*
X625667Y218216D01*
Y221066D01*
X625681Y221095D01*
Y221103D01*
X625688Y221110D01*
X625725Y221132D01*
X625732D01*
X625747Y221139D01*
X625769Y221147D01*
X625798Y221154D01*
X625805D01*
X625827Y221161D01*
X625856D01*
X625900D01*
X625907D01*
X625936D01*
X625973D01*
X626009Y221154D01*
D02*
G37*
G36*
X628371Y217523D02*
X628459Y217516D01*
X628568Y217502D01*
X628677Y217487D01*
X628794Y217458D01*
X628903Y217421D01*
X628918Y217414D01*
X628954Y217400D01*
X629005Y217378D01*
X629071Y217341D01*
X629151Y217297D01*
X629239Y217246D01*
X629319Y217181D01*
X629399Y217108D01*
X629406Y217101D01*
X629428Y217072D01*
X629465Y217028D01*
X629508Y216969D01*
X629559Y216897D01*
X629610Y216816D01*
X629654Y216714D01*
X629698Y216612D01*
X629705Y216598D01*
X629712Y216561D01*
X629727Y216503D01*
X629749Y216423D01*
X629771Y216328D01*
X629785Y216218D01*
X629793Y216095D01*
X629800Y215956D01*
Y215898D01*
X629793Y215832D01*
X629785Y215752D01*
X629778Y215657D01*
X629756Y215555D01*
X629734Y215453D01*
X629705Y215344D01*
X629698Y215329D01*
X629691Y215300D01*
X629662Y215249D01*
X629632Y215183D01*
X629596Y215103D01*
X629545Y215030D01*
X629487Y214950D01*
X629421Y214870D01*
X629414Y214863D01*
X629385Y214841D01*
X629341Y214804D01*
X629290Y214760D01*
X629217Y214709D01*
X629137Y214658D01*
X629042Y214607D01*
X628940Y214564D01*
X628925Y214556D01*
X628889Y214549D01*
X628830Y214534D01*
X628750Y214513D01*
X628655Y214491D01*
X628539Y214476D01*
X628415Y214469D01*
X628276Y214462D01*
X625747D01*
X625739D01*
X625732D01*
X625710Y214469D01*
X625703D01*
X625696Y214483D01*
X625681Y214513D01*
Y214520D01*
X625674Y214534D01*
X625667Y214564D01*
X625659Y214593D01*
Y214600D01*
X625652Y214629D01*
X625645Y214673D01*
Y214775D01*
X625652Y214812D01*
X625659Y214855D01*
Y214863D01*
X625667Y214892D01*
X625674Y214914D01*
X625681Y214943D01*
Y214950D01*
X625688Y214957D01*
X625710Y214986D01*
X625718Y214994D01*
X625747Y215001D01*
X628211D01*
X628225D01*
X628262D01*
X628313Y215008D01*
X628378D01*
X628459Y215016D01*
X628539Y215030D01*
X628707Y215067D01*
X628714D01*
X628743Y215081D01*
X628779Y215096D01*
X628830Y215118D01*
X628940Y215176D01*
X629056Y215264D01*
X629064Y215271D01*
X629078Y215285D01*
X629107Y215315D01*
X629137Y215351D01*
X629166Y215395D01*
X629202Y215453D01*
X629268Y215577D01*
Y215584D01*
X629275Y215614D01*
X629290Y215650D01*
X629297Y215701D01*
X629312Y215759D01*
X629326Y215832D01*
X629333Y215992D01*
Y216036D01*
X629326Y216080D01*
Y216138D01*
X629319Y216204D01*
X629304Y216270D01*
X629268Y216415D01*
Y216423D01*
X629253Y216444D01*
X629239Y216481D01*
X629217Y216525D01*
X629151Y216619D01*
X629064Y216722D01*
X629056Y216729D01*
X629042Y216743D01*
X629005Y216765D01*
X628969Y216794D01*
X628918Y216831D01*
X628860Y216860D01*
X628794Y216889D01*
X628721Y216918D01*
X628714D01*
X628685Y216933D01*
X628641Y216940D01*
X628583Y216955D01*
X628510Y216969D01*
X628430Y216977D01*
X628335Y216991D01*
X628240D01*
X625747D01*
X625739D01*
X625732D01*
X625710Y216999D01*
X625703D01*
X625696Y217013D01*
X625681Y217042D01*
Y217050D01*
X625674Y217064D01*
X625667Y217093D01*
X625659Y217130D01*
Y217137D01*
X625652Y217166D01*
X625645Y217210D01*
Y217305D01*
X625652Y217341D01*
X625659Y217385D01*
Y217392D01*
X625667Y217414D01*
X625674Y217443D01*
X625681Y217465D01*
Y217472D01*
X625688Y217487D01*
X625696Y217502D01*
X625710Y217516D01*
X625718Y217523D01*
X625747Y217531D01*
X628240D01*
X628247D01*
X628255D01*
X628276D01*
X628305D01*
X628371Y217523D01*
D02*
G37*
G36*
X627839Y213609D02*
X627956Y213601D01*
X628094Y213587D01*
X628247Y213565D01*
X628400Y213536D01*
X628553Y213499D01*
X628561D01*
X628568Y213492D01*
X628590Y213485D01*
X628619Y213477D01*
X628692Y213448D01*
X628787Y213412D01*
X628889Y213361D01*
X629005Y213302D01*
X629115Y213230D01*
X629224Y213149D01*
X629239Y213142D01*
X629268Y213106D01*
X629319Y213055D01*
X629385Y212989D01*
X629450Y212902D01*
X629523Y212807D01*
X629589Y212690D01*
X629654Y212566D01*
Y212559D01*
X629662Y212552D01*
X629669Y212530D01*
X629676Y212508D01*
X629698Y212428D01*
X629727Y212333D01*
X629756Y212216D01*
X629778Y212078D01*
X629793Y211917D01*
X629800Y211750D01*
Y211670D01*
X629793Y211633D01*
Y211589D01*
X629785Y211480D01*
X629771Y211356D01*
X629742Y211218D01*
X629712Y211086D01*
X629669Y210955D01*
X629662Y210941D01*
X629640Y210897D01*
X629610Y210839D01*
X629567Y210758D01*
X629508Y210671D01*
X629443Y210583D01*
X629363Y210489D01*
X629268Y210401D01*
X629253Y210394D01*
X629224Y210365D01*
X629166Y210328D01*
X629086Y210277D01*
X628991Y210226D01*
X628882Y210168D01*
X628757Y210117D01*
X628619Y210073D01*
X628612D01*
X628604Y210066D01*
X628583D01*
X628553Y210058D01*
X628517Y210051D01*
X628473Y210044D01*
X628364Y210022D01*
X628233Y210000D01*
X628080Y209986D01*
X627912Y209978D01*
X627730Y209971D01*
X627722D01*
X627708D01*
X627686D01*
X627649D01*
X627606D01*
X627555Y209978D01*
X627438Y209986D01*
X627307Y210000D01*
X627154Y210015D01*
X627008Y210044D01*
X626855Y210080D01*
X626848D01*
X626840Y210088D01*
X626818Y210095D01*
X626789Y210102D01*
X626716Y210131D01*
X626622Y210168D01*
X626519Y210219D01*
X626410Y210277D01*
X626301Y210350D01*
X626191Y210430D01*
X626177Y210445D01*
X626148Y210474D01*
X626097Y210525D01*
X626031Y210591D01*
X625965Y210678D01*
X625893Y210773D01*
X625827Y210890D01*
X625761Y211014D01*
Y211021D01*
X625754Y211028D01*
X625747Y211050D01*
X625739Y211079D01*
X625710Y211152D01*
X625681Y211247D01*
X625659Y211363D01*
X625630Y211509D01*
X625616Y211662D01*
X625608Y211830D01*
Y211903D01*
X625616Y211990D01*
X625623Y212100D01*
X625645Y212224D01*
X625667Y212355D01*
X625703Y212486D01*
X625747Y212617D01*
Y212625D01*
X625754Y212632D01*
X625769Y212676D01*
X625805Y212734D01*
X625849Y212814D01*
X625907Y212902D01*
X625973Y212996D01*
X626053Y213084D01*
X626148Y213171D01*
X626162Y213179D01*
X626191Y213208D01*
X626250Y213251D01*
X626323Y213295D01*
X626417Y213354D01*
X626527Y213412D01*
X626651Y213463D01*
X626789Y213507D01*
X626796D01*
X626804Y213514D01*
X626826D01*
X626855Y213521D01*
X626891Y213536D01*
X626935Y213543D01*
X627037Y213565D01*
X627168Y213580D01*
X627321Y213601D01*
X627482Y213609D01*
X627664Y213616D01*
X627671D01*
X627686D01*
X627715D01*
X627744D01*
X627788D01*
X627839Y213609D01*
D02*
G37*
G36*
X625812Y209526D02*
X625863Y209512D01*
X629654Y208185D01*
X629662D01*
X629676Y208178D01*
X629712Y208149D01*
Y208141D01*
X629727Y208134D01*
X629734Y208112D01*
X629742Y208083D01*
Y208076D01*
X629749Y208054D01*
Y208025D01*
X629756Y207981D01*
Y207937D01*
X629764Y207893D01*
Y207748D01*
X629756Y207711D01*
Y207653D01*
X629749Y207616D01*
Y207609D01*
X629742Y207594D01*
Y207551D01*
X629734Y207536D01*
X629727Y207507D01*
X629720Y207500D01*
X629698Y207478D01*
X629691D01*
X629683Y207470D01*
X629647Y207456D01*
X625856Y206129D01*
X625842Y206122D01*
X625820Y206115D01*
X625783Y206107D01*
X625747Y206100D01*
X625739D01*
X625725D01*
X625703Y206107D01*
X625681Y206122D01*
X625674Y206129D01*
X625667Y206144D01*
X625659Y206173D01*
X625652Y206217D01*
Y206231D01*
X625645Y206260D01*
Y206486D01*
X625652Y206530D01*
Y206537D01*
X625659Y206559D01*
X625667Y206588D01*
X625674Y206610D01*
Y206618D01*
X625681Y206625D01*
X625688Y206640D01*
X625703Y206647D01*
X625718Y206654D01*
X625754Y206676D01*
X629188Y207850D01*
Y207857D01*
X625761Y208994D01*
X625754D01*
X625739Y209001D01*
X625703Y209009D01*
X625696D01*
X625688Y209023D01*
X625674Y209052D01*
Y209060D01*
X625667Y209074D01*
X625659Y209103D01*
X625652Y209140D01*
Y209147D01*
X625645Y209184D01*
Y209351D01*
X625652Y209402D01*
X625659Y209446D01*
Y209453D01*
X625667Y209475D01*
X625674Y209504D01*
X625688Y209526D01*
X625696D01*
X625703Y209534D01*
X625725Y209541D01*
X625754D01*
X625761D01*
X625783D01*
X625812Y209526D01*
D02*
G37*
G36*
X626081Y293613D02*
X626139D01*
X626263Y293606D01*
X626409Y293584D01*
X626562Y293562D01*
X626722Y293526D01*
X626875Y293482D01*
X626883D01*
X626890Y293475D01*
X626912Y293467D01*
X626941Y293460D01*
X627014Y293423D01*
X627101Y293380D01*
X627211Y293321D01*
X627320Y293256D01*
X627429Y293176D01*
X627531Y293081D01*
X627546Y293066D01*
X627575Y293037D01*
X627619Y292979D01*
X627677Y292906D01*
X627736Y292811D01*
X627801Y292709D01*
X627867Y292585D01*
X627918Y292447D01*
Y292439D01*
X627925Y292432D01*
X627932Y292410D01*
X627940Y292381D01*
X627947Y292344D01*
X627954Y292301D01*
X627976Y292191D01*
X628005Y292060D01*
X628020Y291907D01*
X628034Y291739D01*
X628042Y291550D01*
Y290668D01*
X628034Y290639D01*
X628020Y290595D01*
X627998Y290544D01*
X627991Y290537D01*
X627954Y290515D01*
X627903Y290493D01*
X627823Y290486D01*
X624193D01*
X624185D01*
X624171D01*
X624127Y290493D01*
X624069Y290507D01*
X624018Y290544D01*
X624010Y290559D01*
X623988Y290588D01*
X623974Y290631D01*
X623967Y290682D01*
Y291696D01*
X623974Y291739D01*
Y291791D01*
X623981Y291914D01*
X624003Y292053D01*
X624025Y292206D01*
X624061Y292352D01*
X624105Y292498D01*
Y292505D01*
X624112Y292512D01*
X624127Y292563D01*
X624163Y292629D01*
X624207Y292716D01*
X624265Y292811D01*
X624331Y292913D01*
X624411Y293022D01*
X624499Y293117D01*
X624513Y293132D01*
X624543Y293161D01*
X624601Y293205D01*
X624674Y293256D01*
X624761Y293314D01*
X624870Y293380D01*
X624995Y293438D01*
X625126Y293489D01*
X625133D01*
X625140Y293496D01*
X625162Y293504D01*
X625191Y293511D01*
X625264Y293533D01*
X625366Y293555D01*
X625490Y293577D01*
X625629Y293598D01*
X625782Y293613D01*
X625949Y293620D01*
X625957D01*
X625971D01*
X626000D01*
X626037D01*
X626081Y293613D01*
D02*
G37*
G36*
X627889Y289399D02*
X627925Y289385D01*
X627932Y289377D01*
X627947Y289370D01*
X627998Y289327D01*
X628005Y289319D01*
X628013Y289305D01*
X628027Y289275D01*
X628042Y289246D01*
Y289224D01*
X628049Y289195D01*
Y288933D01*
X628042Y288889D01*
X628034Y288838D01*
Y288831D01*
X628020Y288802D01*
X628005Y288758D01*
X627976Y288714D01*
X627969Y288707D01*
X627947Y288685D01*
X627903Y288649D01*
X627852Y288605D01*
X627845D01*
X627838Y288597D01*
X627794Y288568D01*
X627736Y288525D01*
X627648Y288481D01*
X625330Y287234D01*
X625322Y287227D01*
X625301Y287220D01*
X625264Y287198D01*
X625220Y287176D01*
X625162Y287147D01*
X625097Y287110D01*
X624958Y287037D01*
X624951Y287030D01*
X624922Y287023D01*
X624885Y287001D01*
X624834Y286979D01*
X624776Y286950D01*
X624710Y286921D01*
X624572Y286855D01*
Y286848D01*
X624579D01*
X624608D01*
X624659D01*
X624717Y286855D01*
X624783D01*
X624863D01*
X625038D01*
X625045D01*
X625075D01*
X625126D01*
X625184Y286862D01*
X625257D01*
X625330D01*
X625505D01*
X627969D01*
X627983D01*
X628013Y286848D01*
X628020Y286833D01*
X628027Y286819D01*
X628034Y286797D01*
Y286789D01*
X628042Y286775D01*
Y286753D01*
X628049Y286717D01*
Y286709D01*
X628056Y286680D01*
X628064Y286636D01*
Y286542D01*
X628056Y286498D01*
X628049Y286454D01*
Y286447D01*
X628042Y286425D01*
Y286396D01*
X628034Y286374D01*
Y286367D01*
X628027Y286359D01*
X628013Y286330D01*
X628005D01*
X627998D01*
X627969Y286323D01*
X624200D01*
X624193D01*
X624178D01*
X624134Y286330D01*
X624076Y286352D01*
X624025Y286389D01*
X624018Y286403D01*
X623996Y286440D01*
X623974Y286491D01*
X623967Y286549D01*
Y286870D01*
X623974Y286913D01*
X623988Y286965D01*
Y286979D01*
X624003Y287001D01*
X624018Y287045D01*
X624040Y287081D01*
X624047Y287088D01*
X624069Y287110D01*
X624098Y287139D01*
X624142Y287176D01*
X624149Y287183D01*
X624185Y287205D01*
X624236Y287242D01*
X624302Y287278D01*
X626088Y288240D01*
X626095Y288247D01*
X626117Y288255D01*
X626146Y288269D01*
X626190Y288291D01*
X626241Y288320D01*
X626299Y288350D01*
X626416Y288408D01*
X626423Y288415D01*
X626445Y288422D01*
X626474Y288437D01*
X626511Y288459D01*
X626613Y288510D01*
X626722Y288568D01*
X626729Y288576D01*
X626744Y288583D01*
X626773Y288597D01*
X626810Y288619D01*
X626904Y288670D01*
X627014Y288721D01*
X627021D01*
X627036Y288736D01*
X627065Y288751D01*
X627109Y288765D01*
X627203Y288816D01*
X627313Y288867D01*
Y288875D01*
X627298D01*
X627269D01*
X627218D01*
X627152D01*
X627079Y288867D01*
X626992D01*
X626897D01*
X626795D01*
X626781D01*
X626751D01*
X626693D01*
X626627D01*
X626547D01*
X626460D01*
X626277D01*
X624061D01*
X624054D01*
X624047D01*
X624025Y288875D01*
X624018D01*
X624010Y288889D01*
X623988Y288918D01*
Y288926D01*
X623981Y288940D01*
X623974Y288969D01*
X623967Y289006D01*
Y289013D01*
X623959Y289042D01*
Y289217D01*
X623967Y289261D01*
Y289268D01*
X623974Y289297D01*
X623981Y289319D01*
X623988Y289348D01*
Y289356D01*
X623996Y289363D01*
X624025Y289392D01*
X624032Y289399D01*
X624061Y289407D01*
X627823D01*
X627830D01*
X627859D01*
X627889Y289399D01*
D02*
G37*
G36*
X624637Y285310D02*
X624645D01*
X624659Y285302D01*
X624710Y285288D01*
X624717D01*
X624725Y285280D01*
X624754Y285251D01*
Y285244D01*
X624761Y285215D01*
Y285208D01*
X624754Y285186D01*
X624739Y285149D01*
X624703Y285091D01*
Y285084D01*
X624696Y285076D01*
X624681Y285054D01*
X624666Y285025D01*
X624623Y284952D01*
X624572Y284850D01*
Y284843D01*
X624557Y284821D01*
X624543Y284792D01*
X624528Y284748D01*
X624506Y284697D01*
X624484Y284639D01*
X624462Y284566D01*
X624440Y284493D01*
Y284486D01*
X624433Y284457D01*
X624418Y284413D01*
X624404Y284355D01*
X624397Y284289D01*
X624382Y284202D01*
X624375Y284114D01*
Y283954D01*
X624382Y283888D01*
X624389Y283808D01*
X624404Y283713D01*
X624426Y283611D01*
X624455Y283502D01*
X624499Y283400D01*
X624506Y283385D01*
X624521Y283356D01*
X624550Y283305D01*
X624586Y283247D01*
X624637Y283174D01*
X624696Y283101D01*
X624761Y283021D01*
X624841Y282948D01*
X624849Y282940D01*
X624878Y282919D01*
X624929Y282882D01*
X624987Y282846D01*
X625060Y282802D01*
X625155Y282751D01*
X625250Y282707D01*
X625359Y282663D01*
X625374Y282656D01*
X625410Y282649D01*
X625468Y282634D01*
X625549Y282620D01*
X625651Y282598D01*
X625760Y282583D01*
X625877Y282576D01*
X626008Y282569D01*
X626015D01*
X626022D01*
X626044D01*
X626073D01*
X626146Y282576D01*
X626241Y282583D01*
X626343Y282591D01*
X626460Y282612D01*
X626584Y282634D01*
X626700Y282671D01*
X626715Y282678D01*
X626751Y282693D01*
X626802Y282714D01*
X626875Y282751D01*
X626956Y282795D01*
X627043Y282846D01*
X627130Y282904D01*
X627211Y282970D01*
X627218Y282977D01*
X627247Y283006D01*
X627283Y283043D01*
X627327Y283101D01*
X627378Y283166D01*
X627429Y283247D01*
X627480Y283334D01*
X627524Y283429D01*
X627531Y283443D01*
X627539Y283480D01*
X627553Y283531D01*
X627575Y283604D01*
X627597Y283691D01*
X627612Y283793D01*
X627619Y283903D01*
X627626Y284019D01*
Y284092D01*
X627619Y284136D01*
Y284194D01*
X627604Y284260D01*
X627582Y284406D01*
Y284413D01*
X627575Y284442D01*
X627561Y284479D01*
X627546Y284522D01*
X627531Y284581D01*
X627502Y284646D01*
X627444Y284770D01*
X626256D01*
Y283808D01*
X626248Y283786D01*
X626234Y283757D01*
X626205Y283735D01*
X626197D01*
X626161Y283728D01*
X626110Y283720D01*
X626037Y283713D01*
X626030D01*
X626000D01*
X625971D01*
X625935D01*
X625928D01*
X625913Y283720D01*
X625891Y283728D01*
X625869Y283735D01*
X625862D01*
X625855Y283742D01*
X625826Y283764D01*
Y283771D01*
X625818Y283779D01*
X625811Y283815D01*
Y285135D01*
X625826Y285178D01*
Y285186D01*
X625833Y285200D01*
X625869Y285244D01*
X625877Y285251D01*
X625884Y285259D01*
X625906Y285273D01*
X625935Y285288D01*
X625942Y285295D01*
X625964Y285302D01*
X625993Y285310D01*
X626037D01*
X627590D01*
X627604D01*
X627641D01*
X627684Y285295D01*
X627736Y285280D01*
X627743Y285273D01*
X627772Y285251D01*
X627801Y285215D01*
X627838Y285157D01*
Y285149D01*
X627845Y285142D01*
X627852Y285120D01*
X627867Y285098D01*
X627896Y285018D01*
X627940Y284923D01*
Y284916D01*
X627947Y284901D01*
X627954Y284872D01*
X627969Y284828D01*
X627983Y284785D01*
X627998Y284734D01*
X628027Y284617D01*
Y284610D01*
X628034Y284588D01*
Y284559D01*
X628042Y284522D01*
X628049Y284471D01*
X628064Y284420D01*
X628078Y284304D01*
Y284275D01*
X628085Y284245D01*
Y284209D01*
X628093Y284107D01*
X628100Y283998D01*
Y283917D01*
X628093Y283874D01*
Y283830D01*
X628078Y283713D01*
X628064Y283582D01*
X628042Y283443D01*
X628005Y283298D01*
X627954Y283152D01*
Y283144D01*
X627947Y283137D01*
X627925Y283094D01*
X627896Y283021D01*
X627845Y282933D01*
X627786Y282838D01*
X627714Y282729D01*
X627633Y282627D01*
X627539Y282525D01*
X627524Y282510D01*
X627488Y282481D01*
X627437Y282437D01*
X627356Y282379D01*
X627262Y282313D01*
X627152Y282248D01*
X627028Y282189D01*
X626890Y282131D01*
X626883D01*
X626875Y282124D01*
X626853Y282117D01*
X626824Y282109D01*
X626744Y282087D01*
X626642Y282066D01*
X626518Y282044D01*
X626372Y282022D01*
X626212Y282007D01*
X626044Y282000D01*
X626037D01*
X626022D01*
X626000D01*
X625964D01*
X625920Y282007D01*
X625869D01*
X625753Y282022D01*
X625621Y282036D01*
X625468Y282058D01*
X625322Y282095D01*
X625169Y282146D01*
X625162D01*
X625155Y282153D01*
X625133Y282160D01*
X625104Y282175D01*
X625031Y282204D01*
X624936Y282255D01*
X624834Y282306D01*
X624717Y282379D01*
X624608Y282459D01*
X624499Y282554D01*
X624484Y282569D01*
X624455Y282605D01*
X624404Y282656D01*
X624338Y282736D01*
X624265Y282831D01*
X624193Y282940D01*
X624127Y283064D01*
X624061Y283196D01*
Y283203D01*
X624054Y283210D01*
X624047Y283232D01*
X624040Y283261D01*
X624010Y283334D01*
X623981Y283436D01*
X623959Y283560D01*
X623930Y283699D01*
X623915Y283852D01*
X623908Y284019D01*
Y284107D01*
X623915Y284165D01*
Y284231D01*
X623923Y284304D01*
X623952Y284457D01*
Y284464D01*
X623959Y284493D01*
X623967Y284530D01*
X623981Y284581D01*
X623996Y284639D01*
X624010Y284697D01*
X624054Y284821D01*
Y284828D01*
X624061Y284850D01*
X624076Y284880D01*
X624090Y284916D01*
X624127Y285003D01*
X624171Y285091D01*
Y285098D01*
X624178Y285105D01*
X624207Y285149D01*
X624244Y285200D01*
X624280Y285237D01*
X624287Y285244D01*
X624302Y285259D01*
X624338Y285280D01*
X624375Y285295D01*
X624382Y285302D01*
X624411Y285310D01*
X624462Y285317D01*
X624528D01*
X624535D01*
X624564D01*
X624601D01*
X624637Y285310D01*
D02*
G37*
G36*
X512680Y288993D02*
X512731D01*
X512847Y288978D01*
X512979Y288964D01*
X513132Y288942D01*
X513277Y288905D01*
X513431Y288854D01*
X513438D01*
X513445Y288847D01*
X513467Y288840D01*
X513496Y288825D01*
X513569Y288796D01*
X513664Y288745D01*
X513766Y288694D01*
X513883Y288621D01*
X513992Y288541D01*
X514101Y288446D01*
X514116Y288431D01*
X514145Y288395D01*
X514196Y288344D01*
X514262Y288264D01*
X514334Y288169D01*
X514407Y288060D01*
X514473Y287936D01*
X514539Y287804D01*
Y287797D01*
X514546Y287790D01*
X514553Y287768D01*
X514561Y287739D01*
X514590Y287666D01*
X514619Y287564D01*
X514641Y287440D01*
X514670Y287301D01*
X514684Y287148D01*
X514692Y286981D01*
Y286893D01*
X514684Y286835D01*
Y286769D01*
X514677Y286696D01*
X514648Y286543D01*
Y286536D01*
X514641Y286507D01*
X514633Y286470D01*
X514619Y286419D01*
X514604Y286361D01*
X514590Y286303D01*
X514546Y286179D01*
Y286172D01*
X514539Y286150D01*
X514524Y286120D01*
X514509Y286084D01*
X514473Y285997D01*
X514429Y285909D01*
Y285902D01*
X514422Y285894D01*
X514393Y285851D01*
X514356Y285800D01*
X514320Y285763D01*
X514313Y285756D01*
X514298Y285741D01*
X514262Y285719D01*
X514225Y285705D01*
X514218Y285698D01*
X514189Y285690D01*
X514138Y285683D01*
X514072D01*
X514065D01*
X514036D01*
X513999D01*
X513963Y285690D01*
X513955D01*
X513941Y285698D01*
X513890Y285712D01*
X513883D01*
X513875Y285719D01*
X513846Y285749D01*
Y285756D01*
X513839Y285785D01*
Y285792D01*
X513846Y285814D01*
X513861Y285851D01*
X513897Y285909D01*
Y285916D01*
X513904Y285924D01*
X513919Y285946D01*
X513934Y285975D01*
X513977Y286048D01*
X514028Y286150D01*
Y286157D01*
X514043Y286179D01*
X514057Y286208D01*
X514072Y286252D01*
X514094Y286303D01*
X514116Y286361D01*
X514138Y286434D01*
X514160Y286507D01*
Y286514D01*
X514167Y286543D01*
X514182Y286587D01*
X514196Y286645D01*
X514203Y286711D01*
X514218Y286798D01*
X514225Y286886D01*
Y287046D01*
X514218Y287112D01*
X514211Y287192D01*
X514196Y287287D01*
X514174Y287389D01*
X514145Y287498D01*
X514101Y287600D01*
X514094Y287615D01*
X514079Y287644D01*
X514050Y287695D01*
X514014Y287753D01*
X513963Y287826D01*
X513904Y287899D01*
X513839Y287979D01*
X513759Y288052D01*
X513751Y288060D01*
X513722Y288082D01*
X513671Y288118D01*
X513613Y288154D01*
X513540Y288198D01*
X513445Y288249D01*
X513350Y288293D01*
X513241Y288337D01*
X513227Y288344D01*
X513190Y288351D01*
X513132Y288366D01*
X513052Y288380D01*
X512949Y288402D01*
X512840Y288417D01*
X512723Y288424D01*
X512592Y288431D01*
X512585D01*
X512578D01*
X512556D01*
X512527D01*
X512454Y288424D01*
X512359Y288417D01*
X512257Y288409D01*
X512140Y288388D01*
X512016Y288366D01*
X511900Y288329D01*
X511885Y288322D01*
X511849Y288307D01*
X511798Y288286D01*
X511725Y288249D01*
X511645Y288205D01*
X511557Y288154D01*
X511470Y288096D01*
X511389Y288030D01*
X511382Y288023D01*
X511353Y287994D01*
X511316Y287958D01*
X511273Y287899D01*
X511222Y287834D01*
X511171Y287753D01*
X511120Y287666D01*
X511076Y287571D01*
X511069Y287557D01*
X511061Y287520D01*
X511047Y287469D01*
X511025Y287396D01*
X511003Y287309D01*
X510988Y287207D01*
X510981Y287097D01*
X510974Y286981D01*
Y286908D01*
X510981Y286864D01*
Y286806D01*
X510996Y286740D01*
X511018Y286594D01*
Y286587D01*
X511025Y286558D01*
X511039Y286521D01*
X511054Y286478D01*
X511069Y286419D01*
X511098Y286354D01*
X511156Y286230D01*
X512344D01*
Y287192D01*
X512352Y287214D01*
X512366Y287243D01*
X512395Y287265D01*
X512403D01*
X512439Y287272D01*
X512490Y287280D01*
X512563Y287287D01*
X512570D01*
X512600D01*
X512629D01*
X512665D01*
X512672D01*
X512687Y287280D01*
X512709Y287272D01*
X512731Y287265D01*
X512738D01*
X512745Y287258D01*
X512775Y287236D01*
Y287228D01*
X512782Y287221D01*
X512789Y287185D01*
Y285865D01*
X512775Y285822D01*
Y285814D01*
X512767Y285800D01*
X512731Y285756D01*
X512723Y285749D01*
X512716Y285741D01*
X512694Y285727D01*
X512665Y285712D01*
X512658Y285705D01*
X512636Y285698D01*
X512607Y285690D01*
X512563D01*
X511010D01*
X510996D01*
X510959D01*
X510916Y285705D01*
X510864Y285719D01*
X510857Y285727D01*
X510828Y285749D01*
X510799Y285785D01*
X510762Y285843D01*
Y285851D01*
X510755Y285858D01*
X510748Y285880D01*
X510733Y285902D01*
X510704Y285982D01*
X510660Y286077D01*
Y286084D01*
X510653Y286099D01*
X510646Y286128D01*
X510631Y286172D01*
X510617Y286215D01*
X510602Y286266D01*
X510573Y286383D01*
Y286390D01*
X510566Y286412D01*
Y286441D01*
X510558Y286478D01*
X510551Y286529D01*
X510536Y286580D01*
X510522Y286696D01*
Y286725D01*
X510515Y286755D01*
Y286791D01*
X510507Y286893D01*
X510500Y287002D01*
Y287083D01*
X510507Y287126D01*
Y287170D01*
X510522Y287287D01*
X510536Y287418D01*
X510558Y287557D01*
X510595Y287702D01*
X510646Y287848D01*
Y287856D01*
X510653Y287863D01*
X510675Y287907D01*
X510704Y287979D01*
X510755Y288067D01*
X510814Y288162D01*
X510886Y288271D01*
X510967Y288373D01*
X511061Y288475D01*
X511076Y288490D01*
X511112Y288519D01*
X511163Y288563D01*
X511244Y288621D01*
X511338Y288686D01*
X511448Y288752D01*
X511572Y288810D01*
X511710Y288869D01*
X511717D01*
X511725Y288876D01*
X511747Y288883D01*
X511776Y288891D01*
X511856Y288913D01*
X511958Y288934D01*
X512082Y288956D01*
X512228Y288978D01*
X512388Y288993D01*
X512556Y289000D01*
X512563D01*
X512578D01*
X512600D01*
X512636D01*
X512680Y288993D01*
D02*
G37*
G36*
X514466Y284670D02*
X514524Y284648D01*
X514575Y284611D01*
X514582Y284597D01*
X514604Y284560D01*
X514626Y284509D01*
X514633Y284451D01*
Y284130D01*
X514626Y284086D01*
X514612Y284035D01*
Y284021D01*
X514597Y283999D01*
X514582Y283955D01*
X514561Y283919D01*
X514553Y283912D01*
X514531Y283890D01*
X514502Y283861D01*
X514459Y283824D01*
X514451Y283817D01*
X514415Y283795D01*
X514364Y283758D01*
X514298Y283722D01*
X512512Y282760D01*
X512505Y282752D01*
X512483Y282745D01*
X512454Y282731D01*
X512410Y282709D01*
X512359Y282680D01*
X512301Y282650D01*
X512184Y282592D01*
X512177Y282585D01*
X512155Y282577D01*
X512126Y282563D01*
X512089Y282541D01*
X511987Y282490D01*
X511878Y282432D01*
X511870Y282424D01*
X511856Y282417D01*
X511827Y282403D01*
X511790Y282381D01*
X511696Y282330D01*
X511586Y282279D01*
X511579D01*
X511564Y282264D01*
X511535Y282249D01*
X511491Y282235D01*
X511397Y282184D01*
X511287Y282133D01*
Y282125D01*
X511302D01*
X511331D01*
X511382D01*
X511448D01*
X511521Y282133D01*
X511608D01*
X511703D01*
X511805D01*
X511820D01*
X511849D01*
X511907D01*
X511973D01*
X512053D01*
X512140D01*
X512323D01*
X514539D01*
X514546D01*
X514553D01*
X514575Y282125D01*
X514582D01*
X514590Y282111D01*
X514612Y282082D01*
Y282074D01*
X514619Y282060D01*
X514626Y282031D01*
X514633Y281994D01*
Y281987D01*
X514641Y281958D01*
Y281783D01*
X514633Y281739D01*
Y281732D01*
X514626Y281703D01*
X514619Y281681D01*
X514612Y281652D01*
Y281644D01*
X514604Y281637D01*
X514575Y281608D01*
X514568Y281601D01*
X514539Y281593D01*
X510777D01*
X510770D01*
X510741D01*
X510711Y281601D01*
X510675Y281615D01*
X510668Y281623D01*
X510653Y281630D01*
X510602Y281674D01*
X510595Y281681D01*
X510588Y281695D01*
X510573Y281725D01*
X510558Y281754D01*
Y281776D01*
X510551Y281805D01*
Y282067D01*
X510558Y282111D01*
X510566Y282162D01*
Y282169D01*
X510580Y282198D01*
X510595Y282242D01*
X510624Y282286D01*
X510631Y282293D01*
X510653Y282315D01*
X510697Y282351D01*
X510748Y282395D01*
X510755D01*
X510762Y282403D01*
X510806Y282432D01*
X510864Y282475D01*
X510952Y282519D01*
X513270Y283766D01*
X513277Y283773D01*
X513299Y283780D01*
X513336Y283802D01*
X513380Y283824D01*
X513438Y283853D01*
X513504Y283890D01*
X513642Y283963D01*
X513649Y283970D01*
X513678Y283977D01*
X513715Y283999D01*
X513766Y284021D01*
X513824Y284050D01*
X513890Y284079D01*
X514028Y284145D01*
Y284152D01*
X514021D01*
X513992D01*
X513941D01*
X513883Y284145D01*
X513817D01*
X513737D01*
X513562D01*
X513554D01*
X513525D01*
X513474D01*
X513416Y284138D01*
X513343D01*
X513270D01*
X513095D01*
X510631D01*
X510617D01*
X510588Y284152D01*
X510580Y284167D01*
X510573Y284181D01*
X510566Y284203D01*
Y284210D01*
X510558Y284225D01*
Y284247D01*
X510551Y284283D01*
Y284291D01*
X510544Y284320D01*
X510536Y284364D01*
Y284458D01*
X510544Y284502D01*
X510551Y284546D01*
Y284553D01*
X510558Y284575D01*
Y284604D01*
X510566Y284626D01*
Y284633D01*
X510573Y284641D01*
X510588Y284670D01*
X510595D01*
X510602D01*
X510631Y284677D01*
X514400D01*
X514407D01*
X514422D01*
X514466Y284670D01*
D02*
G37*
G36*
X514473Y280507D02*
X514531Y280493D01*
X514582Y280456D01*
X514590Y280441D01*
X514612Y280412D01*
X514626Y280369D01*
X514633Y280318D01*
Y279304D01*
X514626Y279261D01*
Y279209D01*
X514619Y279086D01*
X514597Y278947D01*
X514575Y278794D01*
X514539Y278648D01*
X514495Y278502D01*
Y278495D01*
X514488Y278488D01*
X514473Y278437D01*
X514437Y278371D01*
X514393Y278284D01*
X514334Y278189D01*
X514269Y278087D01*
X514189Y277977D01*
X514101Y277883D01*
X514087Y277868D01*
X514057Y277839D01*
X513999Y277795D01*
X513926Y277744D01*
X513839Y277686D01*
X513729Y277620D01*
X513605Y277562D01*
X513474Y277511D01*
X513467D01*
X513460Y277504D01*
X513438Y277496D01*
X513409Y277489D01*
X513336Y277467D01*
X513234Y277445D01*
X513110Y277424D01*
X512971Y277402D01*
X512818Y277387D01*
X512651Y277380D01*
X512643D01*
X512629D01*
X512600D01*
X512563D01*
X512519Y277387D01*
X512461D01*
X512337Y277394D01*
X512191Y277416D01*
X512038Y277438D01*
X511878Y277474D01*
X511725Y277518D01*
X511717D01*
X511710Y277525D01*
X511688Y277533D01*
X511659Y277540D01*
X511586Y277577D01*
X511499Y277620D01*
X511389Y277679D01*
X511280Y277744D01*
X511171Y277824D01*
X511069Y277919D01*
X511054Y277934D01*
X511025Y277963D01*
X510981Y278021D01*
X510923Y278094D01*
X510864Y278189D01*
X510799Y278291D01*
X510733Y278415D01*
X510682Y278553D01*
Y278561D01*
X510675Y278568D01*
X510668Y278590D01*
X510660Y278619D01*
X510653Y278656D01*
X510646Y278699D01*
X510624Y278809D01*
X510595Y278940D01*
X510580Y279093D01*
X510566Y279261D01*
X510558Y279450D01*
Y280332D01*
X510566Y280361D01*
X510580Y280405D01*
X510602Y280456D01*
X510609Y280463D01*
X510646Y280485D01*
X510697Y280507D01*
X510777Y280514D01*
X514407D01*
X514415D01*
X514429D01*
X514473Y280507D01*
D02*
G37*
G36*
X499997Y274810D02*
X500053Y274804D01*
X500121Y274797D01*
X500189Y274791D01*
X500270Y274773D01*
X500437Y274736D01*
X500622Y274680D01*
X500715Y274643D01*
X500802Y274599D01*
X500889Y274544D01*
X500975Y274488D01*
X500981Y274482D01*
X500994Y274476D01*
X501019Y274457D01*
X501050Y274426D01*
X501081Y274395D01*
X501124Y274352D01*
X501167Y274302D01*
X501217Y274253D01*
X501266Y274191D01*
X501316Y274117D01*
X501371Y274042D01*
X501421Y273962D01*
X501464Y273869D01*
X501514Y273776D01*
X501551Y273677D01*
X501588Y273566D01*
X501031Y273436D01*
Y273442D01*
X501025Y273454D01*
X501012Y273479D01*
X501000Y273510D01*
X500988Y273547D01*
X500969Y273597D01*
X500919Y273696D01*
X500858Y273807D01*
X500783Y273919D01*
X500691Y274024D01*
X500592Y274117D01*
X500579Y274129D01*
X500542Y274154D01*
X500480Y274185D01*
X500400Y274228D01*
X500294Y274265D01*
X500177Y274302D01*
X500034Y274327D01*
X499880Y274333D01*
X499830D01*
X499799Y274327D01*
X499756D01*
X499706Y274321D01*
X499589Y274302D01*
X499459Y274277D01*
X499323Y274234D01*
X499180Y274172D01*
X499050Y274092D01*
X499044D01*
X499038Y274079D01*
X498994Y274048D01*
X498939Y273999D01*
X498871Y273925D01*
X498790Y273832D01*
X498716Y273727D01*
X498648Y273597D01*
X498586Y273454D01*
Y273448D01*
X498580Y273436D01*
X498573Y273417D01*
X498567Y273386D01*
X498555Y273349D01*
X498543Y273306D01*
X498524Y273200D01*
X498499Y273077D01*
X498475Y272940D01*
X498462Y272792D01*
X498456Y272631D01*
Y272625D01*
Y272606D01*
Y272575D01*
Y272538D01*
X498462Y272495D01*
Y272439D01*
X498468Y272377D01*
X498475Y272309D01*
X498493Y272161D01*
X498524Y272000D01*
X498561Y271839D01*
X498611Y271678D01*
Y271672D01*
X498617Y271659D01*
X498629Y271640D01*
X498642Y271610D01*
X498679Y271535D01*
X498735Y271449D01*
X498803Y271350D01*
X498889Y271244D01*
X498988Y271151D01*
X499106Y271065D01*
X499112D01*
X499124Y271059D01*
X499143Y271046D01*
X499168Y271034D01*
X499199Y271022D01*
X499236Y271003D01*
X499323Y270966D01*
X499434Y270929D01*
X499558Y270898D01*
X499694Y270873D01*
X499836Y270867D01*
X499880D01*
X499917Y270873D01*
X499960D01*
X500003Y270879D01*
X500115Y270904D01*
X500245Y270935D01*
X500375Y270984D01*
X500511Y271053D01*
X500579Y271090D01*
X500641Y271139D01*
X500647Y271145D01*
X500653Y271151D01*
X500672Y271170D01*
X500697Y271189D01*
X500722Y271220D01*
X500752Y271257D01*
X500789Y271294D01*
X500820Y271343D01*
X500858Y271399D01*
X500901Y271461D01*
X500938Y271523D01*
X500975Y271597D01*
X501006Y271678D01*
X501037Y271764D01*
X501068Y271857D01*
X501093Y271956D01*
X501662Y271814D01*
Y271808D01*
X501656Y271783D01*
X501644Y271746D01*
X501625Y271696D01*
X501607Y271640D01*
X501582Y271572D01*
X501551Y271498D01*
X501514Y271418D01*
X501427Y271244D01*
X501316Y271071D01*
X501248Y270984D01*
X501180Y270898D01*
X501105Y270824D01*
X501019Y270749D01*
X501012Y270743D01*
X501000Y270731D01*
X500969Y270718D01*
X500938Y270693D01*
X500889Y270662D01*
X500839Y270632D01*
X500771Y270601D01*
X500703Y270570D01*
X500622Y270532D01*
X500536Y270502D01*
X500443Y270471D01*
X500344Y270440D01*
X500239Y270415D01*
X500127Y270403D01*
X500010Y270390D01*
X499886Y270384D01*
X499818D01*
X499768Y270390D01*
X499713D01*
X499644Y270396D01*
X499570Y270409D01*
X499483Y270421D01*
X499304Y270452D01*
X499118Y270502D01*
X498933Y270570D01*
X498846Y270613D01*
X498759Y270662D01*
X498753Y270669D01*
X498741Y270675D01*
X498716Y270693D01*
X498691Y270718D01*
X498654Y270743D01*
X498611Y270780D01*
X498561Y270824D01*
X498512Y270873D01*
X498462Y270929D01*
X498406Y270984D01*
X498295Y271127D01*
X498190Y271294D01*
X498097Y271480D01*
Y271486D01*
X498084Y271504D01*
X498078Y271535D01*
X498060Y271572D01*
X498047Y271622D01*
X498029Y271684D01*
X498004Y271752D01*
X497986Y271826D01*
X497967Y271907D01*
X497942Y272000D01*
X497911Y272192D01*
X497886Y272408D01*
X497874Y272631D01*
Y272637D01*
Y272662D01*
Y272699D01*
X497880Y272742D01*
Y272804D01*
X497886Y272866D01*
X497893Y272947D01*
X497905Y273027D01*
X497936Y273207D01*
X497979Y273405D01*
X498041Y273603D01*
X498128Y273795D01*
X498134Y273801D01*
X498140Y273819D01*
X498153Y273844D01*
X498177Y273875D01*
X498202Y273919D01*
X498233Y273968D01*
X498314Y274079D01*
X498419Y274203D01*
X498543Y274327D01*
X498685Y274451D01*
X498852Y274556D01*
X498858Y274562D01*
X498877Y274568D01*
X498902Y274581D01*
X498933Y274599D01*
X498982Y274618D01*
X499032Y274637D01*
X499093Y274661D01*
X499162Y274686D01*
X499236Y274711D01*
X499316Y274736D01*
X499490Y274773D01*
X499688Y274804D01*
X499892Y274816D01*
X499954D01*
X499997Y274810D01*
D02*
G37*
G36*
X504126Y270458D02*
X503600D01*
Y273807D01*
X503594Y273801D01*
X503563Y273776D01*
X503525Y273739D01*
X503464Y273696D01*
X503396Y273640D01*
X503309Y273578D01*
X503210Y273510D01*
X503098Y273442D01*
X503092D01*
X503086Y273436D01*
X503049Y273411D01*
X502987Y273380D01*
X502913Y273343D01*
X502826Y273300D01*
X502733Y273256D01*
X502640Y273213D01*
X502548Y273176D01*
Y273683D01*
X502554D01*
X502566Y273696D01*
X502591Y273702D01*
X502622Y273720D01*
X502659Y273739D01*
X502702Y273764D01*
X502808Y273826D01*
X502931Y273894D01*
X503055Y273980D01*
X503185Y274079D01*
X503315Y274185D01*
X503321Y274191D01*
X503327Y274197D01*
X503346Y274216D01*
X503371Y274234D01*
X503427Y274296D01*
X503501Y274370D01*
X503575Y274457D01*
X503655Y274556D01*
X503724Y274655D01*
X503786Y274760D01*
X504126D01*
Y270458D01*
D02*
G37*
G36*
X493877Y248064D02*
X495262D01*
Y247481D01*
X493877D01*
Y246110D01*
X493301D01*
Y247481D01*
X491931D01*
Y248064D01*
X493301D01*
Y249434D01*
X493877D01*
Y248064D01*
D02*
G37*
G36*
X600960Y253449D02*
X600433D01*
Y256798D01*
X600427Y256792D01*
X600396Y256767D01*
X600359Y256730D01*
X600297Y256686D01*
X600229Y256631D01*
X600142Y256569D01*
X600043Y256501D01*
X599932Y256433D01*
X599926D01*
X599920Y256426D01*
X599883Y256402D01*
X599821Y256371D01*
X599746Y256333D01*
X599660Y256290D01*
X599567Y256247D01*
X599474Y256204D01*
X599381Y256166D01*
Y256674D01*
X599387D01*
X599400Y256686D01*
X599424Y256693D01*
X599455Y256711D01*
X599493Y256730D01*
X599536Y256754D01*
X599641Y256816D01*
X599765Y256884D01*
X599889Y256971D01*
X600019Y257070D01*
X600149Y257175D01*
X600155Y257182D01*
X600161Y257188D01*
X600180Y257206D01*
X600204Y257225D01*
X600260Y257287D01*
X600334Y257361D01*
X600409Y257448D01*
X600489Y257547D01*
X600557Y257646D01*
X600619Y257751D01*
X600960D01*
Y253449D01*
D02*
G37*
G36*
X596410Y253957D02*
X598521D01*
Y253449D01*
X595840D01*
Y257733D01*
X596410D01*
Y253957D01*
D02*
G37*
G36*
X545142Y213349D02*
X544616D01*
Y216698D01*
X544610Y216692D01*
X544579Y216667D01*
X544542Y216630D01*
X544480Y216586D01*
X544412Y216531D01*
X544325Y216469D01*
X544226Y216401D01*
X544115Y216333D01*
X544109D01*
X544102Y216326D01*
X544065Y216302D01*
X544003Y216271D01*
X543929Y216233D01*
X543843Y216190D01*
X543750Y216147D01*
X543657Y216104D01*
X543564Y216066D01*
Y216574D01*
X543570D01*
X543582Y216586D01*
X543607Y216593D01*
X543638Y216611D01*
X543675Y216630D01*
X543719Y216654D01*
X543824Y216716D01*
X543948Y216784D01*
X544071Y216871D01*
X544202Y216970D01*
X544332Y217075D01*
X544338Y217082D01*
X544344Y217088D01*
X544362Y217106D01*
X544387Y217125D01*
X544443Y217187D01*
X544517Y217261D01*
X544592Y217348D01*
X544672Y217447D01*
X544740Y217546D01*
X544802Y217651D01*
X545142D01*
Y213349D01*
D02*
G37*
G36*
X540816Y217626D02*
X540939Y217620D01*
X541063Y217608D01*
X541187Y217589D01*
X541292Y217571D01*
X541298D01*
X541311Y217564D01*
X541329D01*
X541354Y217552D01*
X541422Y217533D01*
X541509Y217502D01*
X541608Y217459D01*
X541713Y217403D01*
X541818Y217341D01*
X541917Y217261D01*
X541924Y217255D01*
X541930Y217249D01*
X541948Y217230D01*
X541973Y217212D01*
X542035Y217150D01*
X542109Y217063D01*
X542190Y216958D01*
X542276Y216834D01*
X542357Y216692D01*
X542425Y216531D01*
Y216524D01*
X542431Y216512D01*
X542444Y216487D01*
X542450Y216450D01*
X542468Y216407D01*
X542481Y216357D01*
X542493Y216302D01*
X542512Y216233D01*
X542530Y216165D01*
X542543Y216085D01*
X542573Y215912D01*
X542592Y215720D01*
X542598Y215509D01*
Y215503D01*
Y215491D01*
Y215460D01*
Y215429D01*
X542592Y215386D01*
Y215336D01*
X542586Y215218D01*
X542567Y215082D01*
X542549Y214940D01*
X542518Y214791D01*
X542481Y214643D01*
Y214636D01*
X542475Y214624D01*
X542468Y214605D01*
X542462Y214581D01*
X542437Y214513D01*
X542400Y214426D01*
X542363Y214327D01*
X542314Y214228D01*
X542252Y214123D01*
X542190Y214024D01*
X542184Y214011D01*
X542159Y213980D01*
X542122Y213937D01*
X542072Y213881D01*
X542016Y213819D01*
X541948Y213757D01*
X541880Y213689D01*
X541800Y213634D01*
X541787Y213628D01*
X541763Y213609D01*
X541719Y213584D01*
X541657Y213553D01*
X541583Y213516D01*
X541497Y213485D01*
X541397Y213448D01*
X541286Y213417D01*
X541274D01*
X541255Y213411D01*
X541236Y213405D01*
X541175Y213399D01*
X541088Y213386D01*
X540989Y213374D01*
X540871Y213361D01*
X540741Y213355D01*
X540599Y213349D01*
X539058D01*
Y217633D01*
X540704D01*
X540816Y217626D01*
D02*
G37*
G36*
X609604Y294810D02*
X609660Y294804D01*
X609728Y294797D01*
X609796Y294791D01*
X609876Y294773D01*
X610044Y294736D01*
X610229Y294680D01*
X610322Y294643D01*
X610409Y294599D01*
X610496Y294544D01*
X610582Y294488D01*
X610588Y294482D01*
X610601Y294476D01*
X610626Y294457D01*
X610656Y294426D01*
X610687Y294395D01*
X610731Y294352D01*
X610774Y294302D01*
X610824Y294253D01*
X610873Y294191D01*
X610923Y294117D01*
X610978Y294042D01*
X611028Y293962D01*
X611071Y293869D01*
X611121Y293776D01*
X611158Y293677D01*
X611195Y293566D01*
X610638Y293436D01*
Y293442D01*
X610632Y293454D01*
X610619Y293479D01*
X610607Y293510D01*
X610595Y293547D01*
X610576Y293597D01*
X610527Y293696D01*
X610465Y293807D01*
X610390Y293918D01*
X610297Y294024D01*
X610198Y294117D01*
X610186Y294129D01*
X610149Y294154D01*
X610087Y294185D01*
X610007Y294228D01*
X609901Y294265D01*
X609784Y294302D01*
X609641Y294327D01*
X609486Y294333D01*
X609437D01*
X609406Y294327D01*
X609363D01*
X609313Y294321D01*
X609196Y294302D01*
X609066Y294278D01*
X608929Y294234D01*
X608787Y294172D01*
X608657Y294092D01*
X608651D01*
X608645Y294079D01*
X608601Y294049D01*
X608546Y293999D01*
X608478Y293925D01*
X608397Y293832D01*
X608323Y293727D01*
X608255Y293597D01*
X608193Y293454D01*
Y293448D01*
X608187Y293436D01*
X608181Y293417D01*
X608174Y293386D01*
X608162Y293349D01*
X608149Y293306D01*
X608131Y293200D01*
X608106Y293077D01*
X608081Y292940D01*
X608069Y292792D01*
X608063Y292631D01*
Y292625D01*
Y292606D01*
Y292575D01*
Y292538D01*
X608069Y292495D01*
Y292439D01*
X608075Y292377D01*
X608081Y292309D01*
X608100Y292161D01*
X608131Y292000D01*
X608168Y291839D01*
X608218Y291678D01*
Y291671D01*
X608224Y291659D01*
X608236Y291640D01*
X608249Y291610D01*
X608286Y291535D01*
X608341Y291449D01*
X608410Y291350D01*
X608496Y291244D01*
X608595Y291151D01*
X608713Y291065D01*
X608719D01*
X608731Y291059D01*
X608750Y291046D01*
X608775Y291034D01*
X608806Y291021D01*
X608843Y291003D01*
X608929Y290966D01*
X609041Y290929D01*
X609165Y290898D01*
X609301Y290873D01*
X609443Y290867D01*
X609486D01*
X609524Y290873D01*
X609567D01*
X609610Y290879D01*
X609722Y290904D01*
X609852Y290935D01*
X609982Y290984D01*
X610118Y291053D01*
X610186Y291090D01*
X610248Y291139D01*
X610254Y291145D01*
X610260Y291151D01*
X610279Y291170D01*
X610304Y291189D01*
X610328Y291220D01*
X610359Y291257D01*
X610396Y291294D01*
X610427Y291343D01*
X610465Y291399D01*
X610508Y291461D01*
X610545Y291523D01*
X610582Y291597D01*
X610613Y291678D01*
X610644Y291764D01*
X610675Y291857D01*
X610700Y291956D01*
X611269Y291814D01*
Y291808D01*
X611263Y291783D01*
X611251Y291746D01*
X611232Y291696D01*
X611214Y291640D01*
X611189Y291572D01*
X611158Y291498D01*
X611121Y291418D01*
X611034Y291244D01*
X610923Y291071D01*
X610854Y290984D01*
X610786Y290898D01*
X610712Y290824D01*
X610626Y290749D01*
X610619Y290743D01*
X610607Y290731D01*
X610576Y290718D01*
X610545Y290693D01*
X610496Y290663D01*
X610446Y290632D01*
X610378Y290601D01*
X610310Y290570D01*
X610229Y290532D01*
X610143Y290502D01*
X610050Y290471D01*
X609951Y290440D01*
X609846Y290415D01*
X609734Y290403D01*
X609617Y290390D01*
X609493Y290384D01*
X609425D01*
X609375Y290390D01*
X609319D01*
X609251Y290396D01*
X609177Y290409D01*
X609090Y290421D01*
X608911Y290452D01*
X608725Y290502D01*
X608539Y290570D01*
X608453Y290613D01*
X608366Y290663D01*
X608360Y290669D01*
X608348Y290675D01*
X608323Y290693D01*
X608298Y290718D01*
X608261Y290743D01*
X608218Y290780D01*
X608168Y290824D01*
X608119Y290873D01*
X608069Y290929D01*
X608013Y290984D01*
X607902Y291127D01*
X607797Y291294D01*
X607704Y291480D01*
Y291486D01*
X607691Y291504D01*
X607685Y291535D01*
X607667Y291572D01*
X607654Y291622D01*
X607636Y291684D01*
X607611Y291752D01*
X607592Y291826D01*
X607574Y291907D01*
X607549Y292000D01*
X607518Y292192D01*
X607493Y292408D01*
X607481Y292631D01*
Y292637D01*
Y292662D01*
Y292699D01*
X607487Y292742D01*
Y292804D01*
X607493Y292866D01*
X607500Y292947D01*
X607512Y293027D01*
X607543Y293207D01*
X607586Y293405D01*
X607648Y293603D01*
X607735Y293795D01*
X607741Y293801D01*
X607747Y293819D01*
X607760Y293844D01*
X607784Y293875D01*
X607809Y293918D01*
X607840Y293968D01*
X607921Y294079D01*
X608026Y294203D01*
X608149Y294327D01*
X608292Y294451D01*
X608459Y294556D01*
X608465Y294562D01*
X608484Y294568D01*
X608508Y294581D01*
X608539Y294599D01*
X608589Y294618D01*
X608638Y294637D01*
X608700Y294661D01*
X608769Y294686D01*
X608843Y294711D01*
X608923Y294736D01*
X609097Y294773D01*
X609295Y294804D01*
X609499Y294816D01*
X609561D01*
X609604Y294810D01*
D02*
G37*
G36*
X613275Y294754D02*
X613324Y294748D01*
X613386Y294742D01*
X613454Y294729D01*
X613522Y294717D01*
X613683Y294674D01*
X613844Y294612D01*
X613925Y294575D01*
X614005Y294531D01*
X614080Y294476D01*
X614148Y294414D01*
X614154Y294408D01*
X614166Y294401D01*
X614179Y294376D01*
X614203Y294352D01*
X614234Y294321D01*
X614265Y294278D01*
X614296Y294234D01*
X614333Y294179D01*
X614395Y294061D01*
X614457Y293912D01*
X614482Y293838D01*
X614494Y293751D01*
X614507Y293665D01*
X614513Y293572D01*
Y293560D01*
Y293529D01*
X614507Y293479D01*
X614501Y293411D01*
X614488Y293337D01*
X614463Y293250D01*
X614439Y293157D01*
X614401Y293064D01*
X614395Y293052D01*
X614383Y293021D01*
X614358Y292971D01*
X614321Y292903D01*
X614271Y292829D01*
X614210Y292736D01*
X614135Y292643D01*
X614049Y292538D01*
X614036Y292526D01*
X614005Y292489D01*
X613974Y292458D01*
X613943Y292427D01*
X613906Y292389D01*
X613857Y292340D01*
X613807Y292290D01*
X613745Y292235D01*
X613683Y292173D01*
X613609Y292105D01*
X613529Y292037D01*
X613442Y291956D01*
X613343Y291876D01*
X613244Y291789D01*
X613238Y291783D01*
X613225Y291771D01*
X613201Y291752D01*
X613170Y291727D01*
X613132Y291690D01*
X613089Y291653D01*
X612990Y291572D01*
X612885Y291480D01*
X612786Y291387D01*
X612699Y291306D01*
X612662Y291275D01*
X612631Y291244D01*
X612625Y291238D01*
X612606Y291220D01*
X612581Y291195D01*
X612551Y291158D01*
X612520Y291114D01*
X612483Y291071D01*
X612408Y290966D01*
X614519D01*
Y290458D01*
X611678D01*
Y290464D01*
Y290489D01*
Y290526D01*
X611684Y290576D01*
X611690Y290632D01*
X611703Y290693D01*
X611715Y290755D01*
X611740Y290824D01*
Y290830D01*
X611746Y290836D01*
X611758Y290873D01*
X611783Y290929D01*
X611820Y291003D01*
X611870Y291090D01*
X611932Y291189D01*
X612000Y291288D01*
X612086Y291393D01*
Y291399D01*
X612099Y291405D01*
X612130Y291442D01*
X612185Y291498D01*
X612266Y291579D01*
X612359Y291671D01*
X612476Y291783D01*
X612619Y291907D01*
X612773Y292037D01*
X612780Y292043D01*
X612804Y292061D01*
X612842Y292092D01*
X612885Y292130D01*
X612941Y292179D01*
X613009Y292235D01*
X613077Y292297D01*
X613157Y292365D01*
X613312Y292513D01*
X613467Y292662D01*
X613541Y292736D01*
X613609Y292811D01*
X613671Y292879D01*
X613721Y292947D01*
Y292953D01*
X613733Y292959D01*
X613745Y292978D01*
X613758Y293002D01*
X613801Y293070D01*
X613850Y293151D01*
X613894Y293250D01*
X613937Y293355D01*
X613962Y293473D01*
X613974Y293584D01*
Y293590D01*
Y293597D01*
X613968Y293634D01*
X613962Y293696D01*
X613943Y293764D01*
X613919Y293850D01*
X613875Y293937D01*
X613820Y294024D01*
X613745Y294110D01*
X613733Y294123D01*
X613702Y294147D01*
X613659Y294179D01*
X613590Y294222D01*
X613504Y294259D01*
X613405Y294296D01*
X613287Y294321D01*
X613157Y294327D01*
X613120D01*
X613095Y294321D01*
X613021Y294315D01*
X612934Y294296D01*
X612842Y294271D01*
X612736Y294228D01*
X612637Y294172D01*
X612544Y294098D01*
X612532Y294086D01*
X612507Y294055D01*
X612470Y294005D01*
X612433Y293931D01*
X612390Y293844D01*
X612353Y293733D01*
X612328Y293609D01*
X612315Y293467D01*
X611777Y293522D01*
Y293529D01*
X611783Y293547D01*
Y293578D01*
X611789Y293621D01*
X611802Y293671D01*
X611814Y293727D01*
X611833Y293795D01*
X611851Y293863D01*
X611901Y294011D01*
X611975Y294160D01*
X612018Y294234D01*
X612074Y294308D01*
X612130Y294376D01*
X612192Y294438D01*
X612198Y294445D01*
X612210Y294451D01*
X612229Y294469D01*
X612260Y294488D01*
X612297Y294513D01*
X612340Y294537D01*
X612390Y294568D01*
X612452Y294599D01*
X612520Y294630D01*
X612594Y294661D01*
X612674Y294686D01*
X612761Y294711D01*
X612854Y294729D01*
X612953Y294748D01*
X613058Y294754D01*
X613170Y294760D01*
X613232D01*
X613275Y294754D01*
D02*
G37*
G36*
X603377Y267064D02*
X604762D01*
Y266481D01*
X603377D01*
Y265110D01*
X602801D01*
Y266481D01*
X601431D01*
Y267064D01*
X602801D01*
Y268435D01*
X603377D01*
Y267064D01*
D02*
G37*
G36*
X583188Y296645D02*
X583238Y296639D01*
X583300Y296633D01*
X583368Y296620D01*
X583436Y296608D01*
X583597Y296564D01*
X583758Y296502D01*
X583838Y296465D01*
X583919Y296422D01*
X583993Y296366D01*
X584061Y296304D01*
X584067Y296298D01*
X584080Y296292D01*
X584092Y296267D01*
X584117Y296242D01*
X584148Y296212D01*
X584179Y296168D01*
X584209Y296125D01*
X584247Y296069D01*
X584309Y295952D01*
X584371Y295803D01*
X584395Y295729D01*
X584408Y295642D01*
X584420Y295555D01*
X584426Y295463D01*
Y295450D01*
Y295419D01*
X584420Y295370D01*
X584414Y295302D01*
X584401Y295227D01*
X584377Y295141D01*
X584352Y295048D01*
X584315Y294955D01*
X584309Y294943D01*
X584296Y294912D01*
X584271Y294862D01*
X584234Y294794D01*
X584185Y294720D01*
X584123Y294627D01*
X584049Y294534D01*
X583962Y294429D01*
X583950Y294416D01*
X583919Y294379D01*
X583888Y294348D01*
X583857Y294317D01*
X583819Y294280D01*
X583770Y294231D01*
X583720Y294181D01*
X583659Y294126D01*
X583597Y294064D01*
X583522Y293995D01*
X583442Y293927D01*
X583355Y293847D01*
X583256Y293766D01*
X583157Y293680D01*
X583151Y293674D01*
X583139Y293661D01*
X583114Y293643D01*
X583083Y293618D01*
X583046Y293581D01*
X583003Y293544D01*
X582903Y293463D01*
X582798Y293370D01*
X582699Y293278D01*
X582613Y293197D01*
X582575Y293166D01*
X582544Y293135D01*
X582538Y293129D01*
X582520Y293110D01*
X582495Y293086D01*
X582464Y293049D01*
X582433Y293005D01*
X582396Y292962D01*
X582322Y292857D01*
X584432D01*
Y292349D01*
X581591D01*
Y292355D01*
Y292380D01*
Y292417D01*
X581597Y292467D01*
X581603Y292522D01*
X581616Y292584D01*
X581628Y292646D01*
X581653Y292714D01*
Y292720D01*
X581659Y292727D01*
X581672Y292764D01*
X581696Y292819D01*
X581734Y292894D01*
X581783Y292980D01*
X581845Y293079D01*
X581913Y293178D01*
X582000Y293284D01*
Y293290D01*
X582012Y293296D01*
X582043Y293333D01*
X582099Y293389D01*
X582179Y293469D01*
X582272Y293562D01*
X582390Y293674D01*
X582532Y293797D01*
X582687Y293927D01*
X582693Y293934D01*
X582718Y293952D01*
X582755Y293983D01*
X582798Y294020D01*
X582854Y294070D01*
X582922Y294126D01*
X582990Y294187D01*
X583071Y294255D01*
X583225Y294404D01*
X583380Y294553D01*
X583454Y294627D01*
X583522Y294701D01*
X583584Y294769D01*
X583634Y294837D01*
Y294844D01*
X583646Y294850D01*
X583659Y294868D01*
X583671Y294893D01*
X583714Y294961D01*
X583764Y295042D01*
X583807Y295141D01*
X583850Y295246D01*
X583875Y295363D01*
X583888Y295475D01*
Y295481D01*
Y295487D01*
X583882Y295524D01*
X583875Y295586D01*
X583857Y295654D01*
X583832Y295741D01*
X583789Y295828D01*
X583733Y295914D01*
X583659Y296001D01*
X583646Y296013D01*
X583615Y296038D01*
X583572Y296069D01*
X583504Y296112D01*
X583417Y296150D01*
X583318Y296187D01*
X583201Y296212D01*
X583071Y296218D01*
X583033D01*
X583009Y296212D01*
X582934Y296205D01*
X582848Y296187D01*
X582755Y296162D01*
X582650Y296119D01*
X582551Y296063D01*
X582458Y295989D01*
X582445Y295976D01*
X582421Y295945D01*
X582383Y295896D01*
X582346Y295822D01*
X582303Y295735D01*
X582266Y295623D01*
X582241Y295500D01*
X582229Y295357D01*
X581690Y295413D01*
Y295419D01*
X581696Y295438D01*
Y295469D01*
X581703Y295512D01*
X581715Y295562D01*
X581727Y295617D01*
X581746Y295685D01*
X581765Y295754D01*
X581814Y295902D01*
X581888Y296051D01*
X581932Y296125D01*
X581987Y296199D01*
X582043Y296267D01*
X582105Y296329D01*
X582111Y296335D01*
X582124Y296341D01*
X582142Y296360D01*
X582173Y296379D01*
X582210Y296403D01*
X582254Y296428D01*
X582303Y296459D01*
X582365Y296490D01*
X582433Y296521D01*
X582507Y296552D01*
X582588Y296577D01*
X582674Y296602D01*
X582767Y296620D01*
X582866Y296639D01*
X582971Y296645D01*
X583083Y296651D01*
X583145D01*
X583188Y296645D01*
D02*
G37*
G36*
X579604Y296626D02*
X579660D01*
X579790Y296620D01*
X579926Y296602D01*
X580075Y296583D01*
X580211Y296552D01*
X580279Y296533D01*
X580335Y296515D01*
X580341D01*
X580347Y296509D01*
X580384Y296490D01*
X580440Y296465D01*
X580508Y296422D01*
X580582Y296366D01*
X580663Y296292D01*
X580737Y296205D01*
X580811Y296106D01*
Y296100D01*
X580817Y296094D01*
X580842Y296057D01*
X580867Y295995D01*
X580904Y295914D01*
X580935Y295822D01*
X580966Y295710D01*
X580984Y295592D01*
X580991Y295463D01*
Y295456D01*
Y295444D01*
Y295419D01*
X580984Y295388D01*
Y295345D01*
X580978Y295302D01*
X580954Y295196D01*
X580916Y295073D01*
X580867Y294943D01*
X580793Y294813D01*
X580743Y294751D01*
X580694Y294689D01*
X580687Y294683D01*
X580681Y294676D01*
X580663Y294658D01*
X580638Y294639D01*
X580607Y294615D01*
X580570Y294590D01*
X580520Y294559D01*
X580471Y294522D01*
X580409Y294491D01*
X580341Y294460D01*
X580267Y294423D01*
X580186Y294392D01*
X580093Y294367D01*
X580000Y294336D01*
X579895Y294317D01*
X579784Y294299D01*
X579796Y294293D01*
X579821Y294280D01*
X579858Y294255D01*
X579908Y294231D01*
X580019Y294163D01*
X580075Y294119D01*
X580124Y294082D01*
X580136Y294070D01*
X580167Y294039D01*
X580217Y293989D01*
X580279Y293927D01*
X580347Y293841D01*
X580427Y293748D01*
X580508Y293636D01*
X580595Y293513D01*
X581331Y292349D01*
X580625D01*
X580062Y293240D01*
Y293247D01*
X580050Y293259D01*
X580037Y293278D01*
X580019Y293302D01*
X579976Y293370D01*
X579920Y293457D01*
X579852Y293550D01*
X579784Y293649D01*
X579716Y293742D01*
X579654Y293828D01*
X579647Y293835D01*
X579629Y293859D01*
X579598Y293897D01*
X579555Y293940D01*
X579462Y294033D01*
X579412Y294076D01*
X579363Y294113D01*
X579357Y294119D01*
X579344Y294126D01*
X579319Y294138D01*
X579282Y294157D01*
X579245Y294175D01*
X579202Y294194D01*
X579103Y294225D01*
X579097D01*
X579084Y294231D01*
X579059D01*
X579029Y294237D01*
X578985Y294243D01*
X578936D01*
X578868Y294249D01*
X578137D01*
Y292349D01*
X577568D01*
Y296633D01*
X579555D01*
X579604Y296626D01*
D02*
G37*
G36*
X542400Y295510D02*
X542455Y295504D01*
X542524Y295497D01*
X542592Y295491D01*
X542672Y295473D01*
X542839Y295436D01*
X543025Y295380D01*
X543118Y295343D01*
X543204Y295299D01*
X543291Y295244D01*
X543378Y295188D01*
X543384Y295182D01*
X543396Y295176D01*
X543421Y295157D01*
X543452Y295126D01*
X543483Y295095D01*
X543526Y295052D01*
X543570Y295002D01*
X543619Y294953D01*
X543669Y294891D01*
X543718Y294817D01*
X543774Y294742D01*
X543823Y294662D01*
X543867Y294569D01*
X543916Y294476D01*
X543954Y294377D01*
X543991Y294266D01*
X543434Y294136D01*
Y294142D01*
X543427Y294154D01*
X543415Y294179D01*
X543403Y294210D01*
X543390Y294247D01*
X543372Y294297D01*
X543322Y294396D01*
X543260Y294507D01*
X543186Y294619D01*
X543093Y294724D01*
X542994Y294817D01*
X542982Y294829D01*
X542944Y294854D01*
X542883Y294885D01*
X542802Y294928D01*
X542697Y294965D01*
X542579Y295002D01*
X542437Y295027D01*
X542282Y295033D01*
X542233D01*
X542202Y295027D01*
X542158D01*
X542109Y295021D01*
X541991Y295002D01*
X541861Y294977D01*
X541725Y294934D01*
X541583Y294872D01*
X541453Y294792D01*
X541446D01*
X541440Y294779D01*
X541397Y294748D01*
X541341Y294699D01*
X541273Y294625D01*
X541193Y294532D01*
X541118Y294427D01*
X541050Y294297D01*
X540988Y294154D01*
Y294148D01*
X540982Y294136D01*
X540976Y294117D01*
X540970Y294086D01*
X540957Y294049D01*
X540945Y294006D01*
X540927Y293900D01*
X540902Y293777D01*
X540877Y293640D01*
X540865Y293492D01*
X540859Y293331D01*
Y293325D01*
Y293306D01*
Y293275D01*
Y293238D01*
X540865Y293195D01*
Y293139D01*
X540871Y293077D01*
X540877Y293009D01*
X540896Y292861D01*
X540927Y292700D01*
X540964Y292539D01*
X541013Y292378D01*
Y292372D01*
X541019Y292359D01*
X541032Y292340D01*
X541044Y292310D01*
X541081Y292235D01*
X541137Y292149D01*
X541205Y292050D01*
X541292Y291944D01*
X541391Y291851D01*
X541508Y291765D01*
X541515D01*
X541527Y291759D01*
X541546Y291746D01*
X541570Y291734D01*
X541601Y291722D01*
X541638Y291703D01*
X541725Y291666D01*
X541837Y291629D01*
X541960Y291598D01*
X542097Y291573D01*
X542239Y291567D01*
X542282D01*
X542319Y291573D01*
X542363D01*
X542406Y291579D01*
X542517Y291604D01*
X542647Y291635D01*
X542777Y291684D01*
X542914Y291753D01*
X542982Y291790D01*
X543044Y291839D01*
X543050Y291845D01*
X543056Y291851D01*
X543075Y291870D01*
X543099Y291889D01*
X543124Y291920D01*
X543155Y291957D01*
X543192Y291994D01*
X543223Y292043D01*
X543260Y292099D01*
X543303Y292161D01*
X543341Y292223D01*
X543378Y292297D01*
X543409Y292378D01*
X543440Y292464D01*
X543471Y292557D01*
X543495Y292656D01*
X544065Y292514D01*
Y292508D01*
X544059Y292483D01*
X544046Y292446D01*
X544028Y292396D01*
X544009Y292340D01*
X543984Y292272D01*
X543954Y292198D01*
X543916Y292118D01*
X543830Y291944D01*
X543718Y291771D01*
X543650Y291684D01*
X543582Y291598D01*
X543508Y291524D01*
X543421Y291449D01*
X543415Y291443D01*
X543403Y291431D01*
X543372Y291418D01*
X543341Y291393D01*
X543291Y291363D01*
X543242Y291332D01*
X543174Y291301D01*
X543106Y291270D01*
X543025Y291232D01*
X542938Y291202D01*
X542845Y291171D01*
X542746Y291140D01*
X542641Y291115D01*
X542530Y291103D01*
X542412Y291090D01*
X542288Y291084D01*
X542220D01*
X542171Y291090D01*
X542115D01*
X542047Y291096D01*
X541973Y291109D01*
X541886Y291121D01*
X541707Y291152D01*
X541521Y291202D01*
X541335Y291270D01*
X541248Y291313D01*
X541162Y291363D01*
X541156Y291369D01*
X541143Y291375D01*
X541118Y291393D01*
X541094Y291418D01*
X541057Y291443D01*
X541013Y291480D01*
X540964Y291524D01*
X540914Y291573D01*
X540865Y291629D01*
X540809Y291684D01*
X540697Y291827D01*
X540592Y291994D01*
X540499Y292180D01*
Y292186D01*
X540487Y292204D01*
X540481Y292235D01*
X540462Y292272D01*
X540450Y292322D01*
X540431Y292384D01*
X540407Y292452D01*
X540388Y292526D01*
X540370Y292607D01*
X540345Y292700D01*
X540314Y292892D01*
X540289Y293108D01*
X540277Y293331D01*
Y293337D01*
Y293362D01*
Y293399D01*
X540283Y293442D01*
Y293504D01*
X540289Y293566D01*
X540295Y293647D01*
X540308Y293727D01*
X540339Y293907D01*
X540382Y294105D01*
X540444Y294303D01*
X540530Y294495D01*
X540537Y294501D01*
X540543Y294519D01*
X540555Y294544D01*
X540580Y294575D01*
X540605Y294619D01*
X540636Y294668D01*
X540716Y294779D01*
X540821Y294903D01*
X540945Y295027D01*
X541087Y295151D01*
X541255Y295256D01*
X541261Y295262D01*
X541279Y295268D01*
X541304Y295281D01*
X541335Y295299D01*
X541385Y295318D01*
X541434Y295337D01*
X541496Y295361D01*
X541564Y295386D01*
X541638Y295411D01*
X541719Y295436D01*
X541892Y295473D01*
X542090Y295504D01*
X542295Y295516D01*
X542356D01*
X542400Y295510D01*
D02*
G37*
G36*
X546528Y291158D02*
X546002D01*
Y294507D01*
X545996Y294501D01*
X545965Y294476D01*
X545928Y294439D01*
X545866Y294396D01*
X545798Y294340D01*
X545711Y294278D01*
X545612Y294210D01*
X545501Y294142D01*
X545495D01*
X545489Y294136D01*
X545451Y294111D01*
X545390Y294080D01*
X545315Y294043D01*
X545229Y294000D01*
X545136Y293956D01*
X545043Y293913D01*
X544950Y293876D01*
Y294383D01*
X544956D01*
X544969Y294396D01*
X544993Y294402D01*
X545024Y294420D01*
X545061Y294439D01*
X545105Y294464D01*
X545210Y294526D01*
X545334Y294594D01*
X545458Y294680D01*
X545588Y294779D01*
X545718Y294885D01*
X545724Y294891D01*
X545730Y294897D01*
X545749Y294916D01*
X545773Y294934D01*
X545829Y294996D01*
X545903Y295070D01*
X545978Y295157D01*
X546058Y295256D01*
X546126Y295355D01*
X546188Y295460D01*
X546528D01*
Y291158D01*
D02*
G37*
G36*
X539441D02*
X538871D01*
Y295442D01*
X539441D01*
Y291158D01*
D02*
G37*
G36*
X583579Y269500D02*
X583052D01*
Y272849D01*
X583046Y272843D01*
X583015Y272818D01*
X582978Y272781D01*
X582916Y272737D01*
X582848Y272682D01*
X582761Y272620D01*
X582662Y272552D01*
X582551Y272484D01*
X582545D01*
X582539Y272477D01*
X582502Y272453D01*
X582440Y272422D01*
X582365Y272385D01*
X582279Y272341D01*
X582186Y272298D01*
X582093Y272255D01*
X582000Y272217D01*
Y272725D01*
X582006D01*
X582019Y272737D01*
X582044Y272744D01*
X582074Y272762D01*
X582112Y272781D01*
X582155Y272806D01*
X582260Y272867D01*
X582384Y272935D01*
X582508Y273022D01*
X582638Y273121D01*
X582768Y273226D01*
X582774Y273233D01*
X582780Y273239D01*
X582799Y273257D01*
X582823Y273276D01*
X582879Y273338D01*
X582953Y273412D01*
X583028Y273499D01*
X583108Y273598D01*
X583176Y273697D01*
X583238Y273802D01*
X583579D01*
Y269500D01*
D02*
G37*
G36*
X579536Y273777D02*
X579592D01*
X579722Y273771D01*
X579858Y273752D01*
X580007Y273734D01*
X580143Y273703D01*
X580211Y273684D01*
X580267Y273666D01*
X580273D01*
X580279Y273660D01*
X580316Y273641D01*
X580372Y273616D01*
X580440Y273573D01*
X580514Y273517D01*
X580595Y273443D01*
X580669Y273356D01*
X580744Y273257D01*
Y273251D01*
X580750Y273245D01*
X580774Y273208D01*
X580799Y273146D01*
X580836Y273065D01*
X580867Y272973D01*
X580898Y272861D01*
X580917Y272744D01*
X580923Y272614D01*
Y272607D01*
Y272595D01*
Y272570D01*
X580917Y272539D01*
Y272496D01*
X580911Y272453D01*
X580886Y272347D01*
X580849Y272224D01*
X580799Y272094D01*
X580725Y271964D01*
X580676Y271902D01*
X580626Y271840D01*
X580620Y271834D01*
X580614Y271827D01*
X580595Y271809D01*
X580570Y271790D01*
X580539Y271765D01*
X580502Y271741D01*
X580453Y271710D01*
X580403Y271673D01*
X580341Y271642D01*
X580273Y271611D01*
X580199Y271574D01*
X580118Y271543D01*
X580025Y271518D01*
X579933Y271487D01*
X579827Y271468D01*
X579716Y271450D01*
X579728Y271444D01*
X579753Y271431D01*
X579790Y271407D01*
X579840Y271382D01*
X579951Y271314D01*
X580007Y271270D01*
X580056Y271233D01*
X580069Y271221D01*
X580100Y271190D01*
X580149Y271140D01*
X580211Y271078D01*
X580279Y270992D01*
X580360Y270899D01*
X580440Y270788D01*
X580527Y270664D01*
X581263Y269500D01*
X580558D01*
X579995Y270391D01*
Y270398D01*
X579982Y270410D01*
X579970Y270428D01*
X579951Y270453D01*
X579908Y270521D01*
X579852Y270608D01*
X579784Y270701D01*
X579716Y270800D01*
X579648Y270893D01*
X579586Y270979D01*
X579580Y270986D01*
X579561Y271010D01*
X579530Y271047D01*
X579487Y271091D01*
X579394Y271184D01*
X579345Y271227D01*
X579295Y271264D01*
X579289Y271270D01*
X579277Y271276D01*
X579252Y271289D01*
X579215Y271307D01*
X579178Y271326D01*
X579134Y271345D01*
X579035Y271376D01*
X579029D01*
X579017Y271382D01*
X578992D01*
X578961Y271388D01*
X578918Y271394D01*
X578868D01*
X578800Y271400D01*
X578069D01*
Y269500D01*
X577500D01*
Y273783D01*
X579487D01*
X579536Y273777D01*
D02*
G37*
%LPC*%
G36*
X512936Y216362D02*
Y215036D01*
X515174D01*
Y215043D01*
X512936Y216362D01*
D02*
G37*
G36*
X513745Y212951D02*
X513621D01*
X513614D01*
X513599D01*
X513578D01*
X513549D01*
X513461D01*
X513352Y212943D01*
X513228D01*
X513097Y212929D01*
X512965Y212921D01*
X512841Y212907D01*
X512827D01*
X512790Y212899D01*
X512732Y212885D01*
X512659Y212870D01*
X512579Y212848D01*
X512491Y212827D01*
X512404Y212797D01*
X512324Y212761D01*
X512317Y212754D01*
X512295Y212739D01*
X512258Y212717D01*
X512214Y212688D01*
X512120Y212601D01*
X512069Y212557D01*
X512032Y212499D01*
Y212491D01*
X512018Y212469D01*
X512003Y212433D01*
X511988Y212389D01*
X511974Y212331D01*
X511959Y212265D01*
X511952Y212192D01*
X511945Y212112D01*
Y212047D01*
X511952Y212003D01*
X511967Y211901D01*
X511996Y211799D01*
Y211791D01*
X512010Y211777D01*
X512018Y211748D01*
X512040Y211719D01*
X512090Y211638D01*
X512156Y211565D01*
X512163Y211558D01*
X512178Y211551D01*
X512200Y211529D01*
X512229Y211507D01*
X512309Y211463D01*
X512411Y211412D01*
X512419D01*
X512440Y211398D01*
X512470Y211390D01*
X512506Y211376D01*
X512557Y211361D01*
X512608Y211339D01*
X512739Y211310D01*
X512747D01*
X512769Y211303D01*
X512805Y211296D01*
X512856Y211288D01*
X512914Y211274D01*
X512980Y211267D01*
X513126Y211252D01*
X513133D01*
X513162D01*
X513206Y211245D01*
X513257D01*
X513322D01*
X513403Y211237D01*
X513563D01*
X513578D01*
X513614D01*
X513672D01*
X513745D01*
X513833Y211245D01*
X513920Y211252D01*
X514110Y211267D01*
X514117D01*
X514154Y211274D01*
X514197D01*
X514256Y211281D01*
X514321Y211288D01*
X514387Y211303D01*
X514533Y211332D01*
X514540D01*
X514562Y211339D01*
X514598Y211347D01*
X514642Y211361D01*
X514751Y211390D01*
X514853Y211441D01*
X514861D01*
X514875Y211456D01*
X514904Y211471D01*
X514934Y211485D01*
X515006Y211536D01*
X515079Y211602D01*
X515087Y211609D01*
X515094Y211616D01*
X515109Y211638D01*
X515130Y211667D01*
X515167Y211733D01*
X515203Y211821D01*
Y211828D01*
X515211Y211842D01*
X515218Y211864D01*
X515225Y211901D01*
X515240Y211981D01*
X515247Y212090D01*
Y212134D01*
X515240Y212185D01*
X515233Y212243D01*
X515218Y212316D01*
X515189Y212389D01*
X515160Y212462D01*
X515116Y212528D01*
X515109Y212535D01*
X515094Y212557D01*
X515065Y212586D01*
X515028Y212622D01*
X514977Y212666D01*
X514919Y212710D01*
X514853Y212754D01*
X514773Y212790D01*
X514766Y212797D01*
X514737Y212805D01*
X514686Y212819D01*
X514627Y212841D01*
X514555Y212863D01*
X514460Y212885D01*
X514365Y212907D01*
X514256Y212921D01*
X514241D01*
X514205Y212929D01*
X514146D01*
X514066Y212936D01*
X513971Y212943D01*
X513862D01*
X513745Y212951D01*
D02*
G37*
G36*
X627824Y213040D02*
X627701D01*
X627693D01*
X627686D01*
X627642D01*
X627576D01*
X627489Y213033D01*
X627394Y213025D01*
X627285Y213011D01*
X627059Y212975D01*
X627044D01*
X627008Y212960D01*
X626950Y212945D01*
X626884Y212931D01*
X626804Y212902D01*
X626716Y212865D01*
X626629Y212821D01*
X626541Y212770D01*
X626534Y212763D01*
X626505Y212749D01*
X626469Y212712D01*
X626417Y212668D01*
X626359Y212617D01*
X626301Y212552D01*
X626250Y212479D01*
X626199Y212391D01*
X626191Y212384D01*
X626177Y212348D01*
X626162Y212297D01*
X626133Y212231D01*
X626111Y212143D01*
X626097Y212041D01*
X626082Y211925D01*
X626075Y211801D01*
Y211742D01*
X626082Y211677D01*
X626089Y211597D01*
X626111Y211502D01*
X626133Y211407D01*
X626170Y211305D01*
X626213Y211210D01*
X626221Y211203D01*
X626235Y211174D01*
X626264Y211123D01*
X626308Y211072D01*
X626359Y211006D01*
X626417Y210941D01*
X626483Y210875D01*
X626563Y210817D01*
X626571Y210809D01*
X626600Y210795D01*
X626651Y210766D01*
X626709Y210736D01*
X626782Y210700D01*
X626877Y210664D01*
X626971Y210634D01*
X627081Y210605D01*
X627095D01*
X627132Y210598D01*
X627190Y210591D01*
X627263Y210576D01*
X627358Y210569D01*
X627460Y210554D01*
X627576Y210547D01*
X627693D01*
X627701D01*
X627708D01*
X627751D01*
X627824D01*
X627912Y210554D01*
X628014Y210561D01*
X628123Y210569D01*
X628357Y210605D01*
X628371D01*
X628408Y210620D01*
X628466Y210634D01*
X628532Y210649D01*
X628612Y210678D01*
X628699Y210715D01*
X628787Y210751D01*
X628874Y210802D01*
X628882Y210809D01*
X628911Y210831D01*
X628947Y210860D01*
X628998Y210904D01*
X629056Y210962D01*
X629107Y211021D01*
X629166Y211101D01*
X629217Y211181D01*
X629224Y211196D01*
X629231Y211225D01*
X629253Y211276D01*
X629275Y211349D01*
X629297Y211436D01*
X629312Y211538D01*
X629326Y211648D01*
X629333Y211779D01*
Y211837D01*
X629326Y211903D01*
X629319Y211983D01*
X629304Y212078D01*
X629275Y212173D01*
X629246Y212275D01*
X629202Y212369D01*
X629195Y212384D01*
X629180Y212413D01*
X629151Y212457D01*
X629107Y212515D01*
X629056Y212574D01*
X628998Y212639D01*
X628933Y212705D01*
X628852Y212763D01*
X628845Y212770D01*
X628809Y212785D01*
X628765Y212814D01*
X628699Y212843D01*
X628626Y212880D01*
X628539Y212916D01*
X628437Y212945D01*
X628327Y212975D01*
X628313D01*
X628276Y212982D01*
X628218Y212996D01*
X628138Y213011D01*
X628043Y213018D01*
X627934Y213033D01*
X627824Y213040D01*
D02*
G37*
G36*
X625971Y293052D02*
X625964D01*
X625957D01*
X625913D01*
X625855Y293044D01*
X625774D01*
X625680Y293030D01*
X625578Y293015D01*
X625468Y292993D01*
X625359Y292964D01*
X625344D01*
X625308Y292950D01*
X625257Y292928D01*
X625184Y292906D01*
X625111Y292869D01*
X625024Y292826D01*
X624943Y292767D01*
X624863Y292709D01*
X624856Y292702D01*
X624827Y292680D01*
X624790Y292636D01*
X624739Y292585D01*
X624688Y292527D01*
X624637Y292447D01*
X624579Y292359D01*
X624535Y292264D01*
X624528Y292250D01*
X624513Y292213D01*
X624499Y292155D01*
X624477Y292075D01*
X624455Y291980D01*
X624433Y291856D01*
X624426Y291725D01*
X624418Y291572D01*
Y291025D01*
X627590D01*
Y291645D01*
X627582Y291718D01*
X627575Y291812D01*
X627568Y291914D01*
X627546Y292024D01*
X627524Y292133D01*
X627495Y292235D01*
X627488Y292250D01*
X627473Y292279D01*
X627451Y292330D01*
X627422Y292395D01*
X627378Y292461D01*
X627327Y292541D01*
X627269Y292614D01*
X627196Y292687D01*
X627189Y292694D01*
X627160Y292716D01*
X627116Y292753D01*
X627058Y292789D01*
X626985Y292833D01*
X626897Y292877D01*
X626802Y292920D01*
X626693Y292957D01*
X626678Y292964D01*
X626642Y292971D01*
X626576Y292986D01*
X626489Y293008D01*
X626380Y293022D01*
X626256Y293037D01*
X626124Y293044D01*
X625971Y293052D01*
D02*
G37*
G36*
X514182Y279975D02*
X511010D01*
Y279355D01*
X511018Y279282D01*
X511025Y279188D01*
X511032Y279086D01*
X511054Y278976D01*
X511076Y278867D01*
X511105Y278765D01*
X511112Y278750D01*
X511127Y278721D01*
X511149Y278670D01*
X511178Y278605D01*
X511222Y278539D01*
X511273Y278459D01*
X511331Y278386D01*
X511404Y278313D01*
X511411Y278306D01*
X511440Y278284D01*
X511484Y278247D01*
X511543Y278211D01*
X511615Y278167D01*
X511703Y278123D01*
X511798Y278080D01*
X511907Y278043D01*
X511922Y278036D01*
X511958Y278028D01*
X512024Y278014D01*
X512111Y277992D01*
X512220Y277977D01*
X512344Y277963D01*
X512476Y277956D01*
X512629Y277948D01*
X512636D01*
X512643D01*
X512687D01*
X512745Y277956D01*
X512825D01*
X512920Y277970D01*
X513022Y277985D01*
X513132Y278007D01*
X513241Y278036D01*
X513256D01*
X513292Y278050D01*
X513343Y278072D01*
X513416Y278094D01*
X513489Y278131D01*
X513576Y278174D01*
X513657Y278233D01*
X513737Y278291D01*
X513744Y278298D01*
X513773Y278320D01*
X513810Y278364D01*
X513861Y278415D01*
X513912Y278473D01*
X513963Y278553D01*
X514021Y278641D01*
X514065Y278736D01*
X514072Y278750D01*
X514087Y278787D01*
X514101Y278845D01*
X514123Y278925D01*
X514145Y279020D01*
X514167Y279144D01*
X514174Y279275D01*
X514182Y279428D01*
Y279975D01*
D02*
G37*
G36*
X540618Y217125D02*
X539627D01*
Y213857D01*
X540642D01*
X540686Y213863D01*
X540778Y213869D01*
X540884Y213875D01*
X540995Y213888D01*
X541107Y213906D01*
X541199Y213931D01*
X541212Y213937D01*
X541243Y213943D01*
X541286Y213962D01*
X541342Y213986D01*
X541404Y214024D01*
X541466Y214061D01*
X541527Y214104D01*
X541589Y214154D01*
X541596Y214166D01*
X541620Y214191D01*
X541657Y214234D01*
X541701Y214296D01*
X541750Y214376D01*
X541806Y214469D01*
X541855Y214575D01*
X541899Y214692D01*
Y214698D01*
X541905Y214711D01*
X541911Y214729D01*
X541917Y214754D01*
X541924Y214785D01*
X541936Y214828D01*
X541948Y214872D01*
X541961Y214921D01*
X541979Y215045D01*
X541998Y215187D01*
X542010Y215348D01*
X542016Y215522D01*
Y215528D01*
Y215553D01*
Y215584D01*
X542010Y215633D01*
Y215689D01*
X542004Y215751D01*
X541998Y215825D01*
X541992Y215899D01*
X541961Y216066D01*
X541924Y216240D01*
X541868Y216401D01*
X541831Y216481D01*
X541794Y216549D01*
Y216555D01*
X541781Y216568D01*
X541769Y216586D01*
X541756Y216611D01*
X541707Y216673D01*
X541645Y216747D01*
X541565Y216828D01*
X541472Y216908D01*
X541366Y216976D01*
X541255Y217032D01*
X541243Y217038D01*
X541212Y217044D01*
X541156Y217063D01*
X541076Y217082D01*
X540976Y217094D01*
X540853Y217112D01*
X540778Y217119D01*
X540698D01*
X540618Y217125D01*
D02*
G37*
G36*
X579487Y296156D02*
X578137D01*
Y294738D01*
X579412D01*
X579487Y294744D01*
X579573Y294751D01*
X579672Y294757D01*
X579771Y294769D01*
X579870Y294788D01*
X579957Y294813D01*
X579969Y294819D01*
X579994Y294831D01*
X580031Y294850D01*
X580081Y294875D01*
X580136Y294912D01*
X580192Y294955D01*
X580248Y295011D01*
X580291Y295073D01*
X580297Y295079D01*
X580310Y295104D01*
X580328Y295141D01*
X580353Y295190D01*
X580372Y295246D01*
X580390Y295308D01*
X580403Y295382D01*
X580409Y295456D01*
Y295463D01*
Y295469D01*
X580403Y295506D01*
X580397Y295562D01*
X580384Y295636D01*
X580353Y295710D01*
X580316Y295797D01*
X580260Y295877D01*
X580186Y295958D01*
X580174Y295964D01*
X580143Y295989D01*
X580093Y296020D01*
X580013Y296057D01*
X579920Y296094D01*
X579796Y296125D01*
X579654Y296150D01*
X579487Y296156D01*
D02*
G37*
G36*
X579419Y273307D02*
X578069D01*
Y271889D01*
X579345D01*
X579419Y271896D01*
X579506Y271902D01*
X579605Y271908D01*
X579704Y271920D01*
X579803Y271939D01*
X579889Y271964D01*
X579902Y271970D01*
X579926Y271982D01*
X579964Y272001D01*
X580013Y272025D01*
X580069Y272063D01*
X580125Y272106D01*
X580180Y272162D01*
X580224Y272224D01*
X580230Y272230D01*
X580242Y272255D01*
X580261Y272292D01*
X580286Y272341D01*
X580304Y272397D01*
X580323Y272459D01*
X580335Y272533D01*
X580341Y272607D01*
Y272614D01*
Y272620D01*
X580335Y272657D01*
X580329Y272713D01*
X580316Y272787D01*
X580286Y272861D01*
X580248Y272948D01*
X580193Y273028D01*
X580118Y273109D01*
X580106Y273115D01*
X580075Y273140D01*
X580025Y273171D01*
X579945Y273208D01*
X579852Y273245D01*
X579728Y273276D01*
X579586Y273301D01*
X579419Y273307D01*
D02*
G37*
%LPD*%
D10*
X516748Y253000D02*
G03*
X516748Y253000I-15748J0D01*
G01*
X626248Y272000D02*
G03*
X626248Y272000I-15748J0D01*
G01*
X624697Y200803D02*
Y213795D01*
X574303Y200803D02*
Y213795D01*
X624697Y238205D02*
Y251197D01*
X574303Y238205D02*
Y251197D01*
Y200803D02*
X624697D01*
X574303Y251197D02*
X624697D01*
X543681Y205000D02*
X544468D01*
X540531D02*
X540925D01*
X543681Y203425D02*
Y206968D01*
X540925Y205000D02*
X543681Y206968D01*
X540925Y205000D02*
X543681Y203425D01*
X540925Y203031D02*
Y206968D01*
X527736Y206000D02*
Y211500D01*
X557000D01*
X527736Y206000D02*
X528500D01*
Y211500D01*
Y198500D02*
Y204000D01*
X527736D02*
X528500D01*
X557000Y209626D02*
Y211500D01*
X527736Y198500D02*
Y204000D01*
X557000Y198500D02*
Y200374D01*
X527736Y198500D02*
X557000D01*
X562950Y218900D02*
Y285900D01*
X522950Y218900D02*
X562950D01*
X522950D02*
Y237400D01*
X545950Y285900D02*
X562950D01*
X522950D02*
X545950D01*
X522950Y237400D02*
Y285900D01*
D11*
X583756Y290693D02*
X584543D01*
Y277307D02*
Y290693D01*
X583756Y277307D02*
X584543D01*
X577457Y290693D02*
X578244D01*
X577457Y277307D02*
Y290693D01*
Y277307D02*
X578244D01*
X577457Y284000D02*
X584543D01*
X583256Y267193D02*
X584043D01*
Y253807D02*
Y267193D01*
X583256Y253807D02*
X584043D01*
X576957Y267193D02*
X577744D01*
X576957Y253807D02*
Y267193D01*
Y253807D02*
X577744D01*
X576957Y260500D02*
X584043D01*
M02*
